<svg width="40" height="40" viewBox="0 0 40 40" fill="none" xmlns="http://www.w3.org/2000/svg">
<rect x="0.5" y="0.5" width="39" height="39" rx="11.5" stroke="white"/>
<path d="M7.84414 8C8.71833 8 10.0504 8 10.7997 8C11.1744 8 11.4658 8.24977 11.5907 8.58279C11.9653 9.66512 12.7979 12.0379 13.7553 13.6614C15.0458 15.7844 15.8783 16.5754 16.4195 16.4921C16.9607 16.3672 16.7941 14.9519 16.7941 13.8279C16.7941 12.704 16.919 10.7891 16.3779 9.91489L15.5453 8.70768C15.3372 8.41628 15.5453 8.04163 15.8783 8.04163H20.6239C21.0818 8.04163 21.4565 8.41628 21.4565 8.87419V14.9102C21.4565 14.9102 21.6646 15.9926 22.8302 14.8686C23.9958 13.7447 25.2446 11.6633 26.2853 9.54023L26.7016 8.54116C26.8265 8.24977 27.1179 8.04163 27.4509 8.04163H30.5314C31.1142 8.04163 31.5304 8.62442 31.3223 9.16558L30.9893 10.0398C30.9893 10.0398 29.8653 12.2877 28.6997 13.8695C27.5342 15.493 27.2844 15.8677 27.4509 16.284C27.6174 16.7002 30.6146 19.4893 31.3639 20.8214C31.5721 21.1961 31.7386 21.5291 31.9051 21.8205C32.1965 22.3616 31.7802 23.0693 31.1558 23.0693H27.659C27.3676 23.0693 27.0763 22.9028 26.9514 22.653L26.6183 22.1119C26.6183 22.1119 24.4953 19.6142 23.2049 18.8233C21.8728 18.074 21.9144 19.1563 21.9144 19.1563V21.3626C21.9144 22.2784 21.1651 23.0277 20.2493 23.0277H19.4167C19.4167 23.0277 14.8376 23.0277 11.1744 17.5744C8.30205 13.3284 7.34461 10.5809 7.01158 8.99907C6.92833 8.49954 7.30298 8 7.84414 8Z" fill="#5181B8"/>
<path d="M7.9293 32.3972V27.2122H8.8893C9.08263 27.2122 9.2093 27.2989 9.2693 27.4722L9.3543 27.7522C9.44096 27.6622 9.53096 27.5805 9.6243 27.5072C9.71763 27.4305 9.81763 27.3655 9.9243 27.3122C10.0343 27.2555 10.151 27.2122 10.2743 27.1822C10.401 27.1489 10.5393 27.1322 10.6893 27.1322C11.0026 27.1322 11.261 27.2139 11.4643 27.3772C11.671 27.5372 11.8276 27.7522 11.9343 28.0222C12.021 27.8622 12.126 27.7255 12.2493 27.6122C12.376 27.4989 12.511 27.4072 12.6543 27.3372C12.801 27.2672 12.9543 27.2155 13.1143 27.1822C13.2776 27.1489 13.4393 27.1322 13.5993 27.1322C13.896 27.1322 14.1593 27.1772 14.3893 27.2672C14.6193 27.3539 14.811 27.4822 14.9643 27.6522C15.121 27.8189 15.2393 28.0255 15.3193 28.2722C15.3993 28.5155 15.4393 28.7922 15.4393 29.1022V32.3972H13.8893V29.1022C13.8893 28.5655 13.6593 28.2972 13.1993 28.2972C12.9893 28.2972 12.8143 28.3672 12.6743 28.5072C12.5376 28.6439 12.4693 28.8422 12.4693 29.1022V32.3972H10.9193V29.1022C10.9193 28.8055 10.861 28.5972 10.7443 28.4772C10.6276 28.3572 10.456 28.2972 10.2293 28.2972C10.0893 28.2972 9.95596 28.3289 9.8293 28.3922C9.70596 28.4555 9.5893 28.5405 9.4793 28.6472V32.3972H7.9293ZM21.0852 27.2122V32.3972H20.1252C19.9318 32.3972 19.8052 32.3106 19.7452 32.1372L19.6552 31.8372C19.5552 31.9339 19.4518 32.0222 19.3452 32.1022C19.2385 32.1789 19.1235 32.2456 19.0002 32.3022C18.8802 32.3556 18.7485 32.3972 18.6052 32.4272C18.4652 32.4606 18.3118 32.4772 18.1452 32.4772C17.8618 32.4772 17.6102 32.4289 17.3902 32.3322C17.1735 32.2322 16.9902 32.0939 16.8402 31.9172C16.6902 31.7406 16.5768 31.5322 16.5002 31.2922C16.4235 31.0522 16.3852 30.7889 16.3852 30.5022V27.2122H17.9352V30.5022C17.9352 30.7589 17.9935 30.9572 18.1102 31.0972C18.2268 31.2372 18.3985 31.3072 18.6252 31.3072C18.7952 31.3072 18.9535 31.2722 19.1002 31.2022C19.2502 31.1289 19.3952 31.0306 19.5352 30.9072V27.2122H21.0852ZM25.4333 28.3472C25.3933 28.4105 25.3499 28.4556 25.3033 28.4822C25.2599 28.5089 25.2033 28.5222 25.1333 28.5222C25.0599 28.5222 24.9866 28.5072 24.9133 28.4772C24.8399 28.4439 24.7599 28.4089 24.6733 28.3722C24.5899 28.3355 24.4949 28.3022 24.3883 28.2722C24.2816 28.2389 24.1599 28.2222 24.0233 28.2222C23.8266 28.2222 23.6749 28.2605 23.5683 28.3372C23.4649 28.4105 23.4133 28.5139 23.4133 28.6472C23.4133 28.7439 23.4466 28.8239 23.5133 28.8872C23.5833 28.9505 23.6749 29.0072 23.7883 29.0572C23.9016 29.1039 24.0299 29.1489 24.1733 29.1922C24.3166 29.2356 24.4633 29.2839 24.6133 29.3372C24.7633 29.3905 24.9099 29.4539 25.0533 29.5272C25.1966 29.5972 25.3249 29.6855 25.4383 29.7922C25.5516 29.8956 25.6416 30.0222 25.7083 30.1722C25.7783 30.3222 25.8133 30.5022 25.8133 30.7122C25.8133 30.9689 25.7666 31.2056 25.6733 31.4222C25.5799 31.6389 25.4399 31.8256 25.2533 31.9822C25.0699 32.1389 24.8416 32.2606 24.5683 32.3472C24.2983 32.4339 23.9866 32.4772 23.6333 32.4772C23.4566 32.4772 23.2799 32.4606 23.1033 32.4272C22.9266 32.3939 22.7549 32.3489 22.5883 32.2922C22.4249 32.2356 22.2733 32.1689 22.1333 32.0922C21.9933 32.0122 21.8733 31.9272 21.7733 31.8372L22.1333 31.2672C22.1733 31.2006 22.2233 31.1489 22.2833 31.1122C22.3466 31.0722 22.4266 31.0522 22.5233 31.0522C22.6133 31.0522 22.6933 31.0722 22.7633 31.1122C22.8366 31.1522 22.9149 31.1956 22.9983 31.2422C23.0816 31.2889 23.1783 31.3322 23.2883 31.3722C23.4016 31.4122 23.5433 31.4322 23.7133 31.4322C23.8333 31.4322 23.9349 31.4206 24.0183 31.3972C24.1016 31.3706 24.1683 31.3356 24.2183 31.2922C24.2683 31.2489 24.3049 31.2006 24.3283 31.1472C24.3516 31.0939 24.3633 31.0389 24.3633 30.9822C24.3633 30.8789 24.3283 30.7939 24.2583 30.7272C24.1883 30.6606 24.0966 30.6039 23.9833 30.5572C23.8699 30.5072 23.7399 30.4622 23.5933 30.4222C23.4499 30.3789 23.3033 30.3306 23.1533 30.2772C23.0033 30.2239 22.8549 30.1606 22.7083 30.0872C22.5649 30.0106 22.4366 29.9155 22.3233 29.8022C22.2099 29.6855 22.1183 29.5439 22.0483 29.3772C21.9783 29.2105 21.9433 29.0089 21.9433 28.7722C21.9433 28.5522 21.9849 28.3439 22.0683 28.1472C22.1549 27.9472 22.2833 27.7722 22.4533 27.6222C22.6233 27.4722 22.8366 27.3539 23.0933 27.2672C23.3499 27.1772 23.6499 27.1322 23.9933 27.1322C24.1799 27.1322 24.3599 27.1489 24.5333 27.1822C24.7099 27.2155 24.8749 27.2622 25.0283 27.3222C25.1816 27.3822 25.3216 27.4539 25.4483 27.5372C25.5749 27.6172 25.6866 27.7055 25.7833 27.8022L25.4333 28.3472ZM28.1764 27.2122V32.3972H26.6264V27.2122H28.1764ZM28.3364 25.7922C28.3364 25.9155 28.3114 26.0322 28.2614 26.1422C28.2114 26.2489 28.1431 26.3439 28.0564 26.4272C27.9697 26.5072 27.8681 26.5722 27.7514 26.6222C27.6381 26.6689 27.5164 26.6922 27.3864 26.6922C27.2597 26.6922 27.1414 26.6689 27.0314 26.6222C26.9214 26.5722 26.8231 26.5072 26.7364 26.4272C26.6531 26.3439 26.5864 26.2489 26.5364 26.1422C26.4897 26.0322 26.4664 25.9155 26.4664 25.7922C26.4664 25.6655 26.4897 25.5472 26.5364 25.4372C26.5864 25.3272 26.6531 25.2305 26.7364 25.1472C26.8231 25.0639 26.9214 24.9989 27.0314 24.9522C27.1414 24.9055 27.2597 24.8822 27.3864 24.8822C27.5164 24.8822 27.6381 24.9055 27.7514 24.9522C27.8681 24.9989 27.9697 25.0639 28.0564 25.1472C28.1431 25.2305 28.2114 25.3272 28.2614 25.4372C28.3114 25.5472 28.3364 25.6655 28.3364 25.7922ZM33.0674 28.4422C33.0208 28.4989 32.9758 28.5439 32.9324 28.5772C32.8891 28.6106 32.8274 28.6272 32.7474 28.6272C32.6708 28.6272 32.6008 28.6089 32.5374 28.5722C32.4774 28.5355 32.4091 28.4955 32.3324 28.4522C32.2558 28.4055 32.1658 28.3639 32.0624 28.3272C31.9591 28.2905 31.8308 28.2722 31.6774 28.2722C31.4874 28.2722 31.3224 28.3072 31.1824 28.3772C31.0458 28.4472 30.9324 28.5472 30.8424 28.6772C30.7524 28.8072 30.6858 28.9672 30.6424 29.1572C30.5991 29.3439 30.5774 29.5556 30.5774 29.7922C30.5774 30.2889 30.6724 30.6706 30.8624 30.9372C31.0558 31.2039 31.3208 31.3372 31.6574 31.3372C31.8374 31.3372 31.9791 31.3156 32.0824 31.2722C32.1891 31.2256 32.2791 31.1756 32.3524 31.1222C32.4258 31.0656 32.4924 31.0139 32.5524 30.9672C32.6158 30.9206 32.6941 30.8972 32.7874 30.8972C32.9108 30.8972 33.0041 30.9422 33.0674 31.0322L33.5174 31.5872C33.3574 31.7706 33.1891 31.9206 33.0124 32.0372C32.8358 32.1506 32.6541 32.2406 32.4674 32.3072C32.2841 32.3706 32.0991 32.4139 31.9124 32.4372C31.7258 32.4639 31.5441 32.4772 31.3674 32.4772C31.0508 32.4772 30.7474 32.4172 30.4574 32.2972C30.1708 32.1772 29.9174 32.0039 29.6974 31.7772C29.4808 31.5472 29.3074 31.2656 29.1774 30.9322C29.0508 30.5989 28.9874 30.2189 28.9874 29.7922C28.9874 29.4189 29.0424 29.0706 29.1524 28.7472C29.2658 28.4205 29.4308 28.1389 29.6474 27.9022C29.8674 27.6622 30.1374 27.4739 30.4574 27.3372C30.7808 27.2005 31.1541 27.1322 31.5774 27.1322C31.9841 27.1322 32.3408 27.1972 32.6474 27.3272C32.9541 27.4572 33.2308 27.6472 33.4774 27.8972L33.0674 28.4422Z" fill="#5181B8"/>
</svg>
