<svg width="264" height="170pt" viewBox="0 0 198 170" xmlns="http://www.w3.org/2000/svg"><g fill="#fff"><path d="M54.34 10.5C56.62 3.39 64.75-1.1 71.98.8c3.95.72 7 3.49 9.52 6.43 12.16-2.74 25.01-2.58 37.09.5 2.54-3.45 6.08-6.4 10.44-7.07 7.22-1.55 15.03 3.12 17.13 10.17 1.5 4.2.52 8.72-1.25 12.67 5.92 6.75 10.32 14.74 13.29 23.2 5.97 16.39 6.99 33.96 7.62 51.24 10.73.06 21.46-.13 32.18.11v1.8c-15.63.35-31.27.05-46.9.15-1.9 5.02-3.49 10.25-6.41 14.79-1.84 3.02-5.69 3.03-8.8 3.28 2.65 17.31 5.5 34.6 8.03 51.93H50.78c2.44-17.27 5.26-34.48 8.02-51.7-2.68-.62-5.99-.72-7.72-3.22-3.06-4.6-4.66-9.97-6.61-15.09-14.82-.01-29.65.07-44.47-.04v-1.8c10.71-.48 21.45-.09 32.18-.21.49-8.98.67-18 1.89-26.91C36.52 53.31 42 35.09 54.6 21.85c-1.04-3.68-1.69-7.67-.26-11.35m9.88-7.27c-7.37 2.36-11 11.89-7.07 18.56 1.02 2.53 4.04 3.63 4.89 6.15-2.63 1.34-4.56-2.68-6.4-4.19C41.69 38.94 37 59.97 35.14 79.92c24.19 11.82 51.81 14.61 78.38 12.82 16.97-1.55 33.99-5.18 49.34-12.82-1.79-19.35-6.28-39.58-19.18-54.76-1.79 1.24-3.36 4.37-5.8 2.46 2.2-2.06 4.74-4.01 5.88-6.91 2.52-5.51.46-12.58-4.56-15.93-5.76-4.22-14.68-2.39-18.37 3.69-2.49 3.55-2.15 8.01-1.74 12.09-.48-.29-1.45-.86-1.93-1.14-.93-3.29-.31-6.69.56-9.91-11.57-2.64-23.67-2.82-35.31-.48 1.44 3.69 1.57 7.71.61 11.54-2.84-.68-1.21-3.54-1.43-5.54.06-8.47-9.51-14.96-17.37-11.8m1.1 96.77c.38 1.33.75 2.67 1.13 4 20.89-.01 41.78 0 62.68 0 .36-1.34.73-2.67 1.11-4H65.32m1.64 6.06c.14 2.67.69 5.55-.52 8.06-1.02 2.15-3.54 2.71-5.51 3.62-2.64 16.73-5.23 33.47-7.85 50.2h88.5c-2.61-16.78-5.27-33.56-7.85-50.35-1.67-1.01-3.88-1.68-4.68-3.65-1.11-2.5-.57-5.3-.45-7.93-20.54.12-41.09.03-61.64.05z"/><path d="M65.8 22.1c-1.76-3.45 1.39-7.96 5.26-7.41 3.67-.01 6.75 5.73 3.03 7.9-.65-1.77 0-4.59-2.14-5.47-1.97-1.22-4.67.62-4.56 2.84.46 1.44 1.43 2.65 1.97 4.07-1.51 1.6-2.84-.86-3.56-1.93zm61.08-6.53c3.28-2.45 8.47.36 8.18 4.45 0 2-1.82 5.41-4.23 4.05.72-1.41 1.82-2.63 2.23-4.18-.16-1.89-2.1-3.74-4.05-3-3.02.56-1.33 4.81-4.12 5.73-.39-2.47-.47-5.57 1.99-7.05zM88.49 28.68c13.56-2.25 28.12-.27 39.95 6.97 6.44 4.01 12.07 9.95 14.2 17.37 1.76 6.09 1.09 13.36-3.47 18.09-4.96 5.16-12.21 7.1-19.03 8.34-12.09 1.87-24.42 1.83-36.59.77-8.47-1.01-17.69-2.54-24.18-8.56-6.15-5.85-6.02-15.72-2.35-22.87 6.05-11.67 18.99-17.94 31.47-20.11M81.34 51.4c-2.89 1.19-.33 5.75 2.22 3.97 2.52-1.29.17-5.55-2.22-3.97m32.26.23c-2.68 1.85 1.13 5.9 3.12 3.32 2.1-1.83-1.18-5.27-3.12-3.32m-21.1 5.36c-2.28 3.67 1.83 8.27 5.62 8.59 4.45.81 9.71-4.16 7.51-8.56-1.75 1.37-1.4 4.11-3.18 5.46-2.11 1.81-5.58 1.58-7.44-.5-1.12-1.51-1.21-3.58-2.51-4.99m-22 3.17c2.21 4.25 9.13 4.41 11.98.8-1.83-4.69-8.84-3.73-11.98-.8m44-.01c2.2 4.26 9.13 4.42 11.97.81-1.82-4.69-8.83-3.73-11.97-.81zm-10.06 58c.62-.39 1.85-1.16 2.46-1.55 6.82-.09 13.65-.05 20.47-.01.57.4 1.71 1.22 2.28 1.62-8.35.64-16.87.76-25.21-.06zm-39.99 7.99c.57-.39 1.7-1.17 2.27-1.56 20.85-.03 41.71-.05 62.55.02l2.38 1.63c-3.52.59-7.1.37-10.65.4-17.01 0-34.02-.01-51.02.01-1.86.02-3.71-.13-5.53-.5zm-1.03 6c.57-.38 1.7-1.15 2.27-1.54 22.29.06 44.6-.33 66.88.21-.8 1.3-1.96 2.15-3.52 1.82-20.02 0-40.04-.02-60.06.01-1.87.02-3.74-.13-5.57-.5zm-1.01 5.98c1.7-2.08 4.31-1.41 6.6-1.51 21.49.17 43-.27 64.49.22-.75 1.33-1.87 2.22-3.46 1.86-20.67.01-41.35-.02-62.02.01-1.89.03-3.77-.13-5.61-.58zm-.99 6.01c.58-.37 1.75-1.11 2.33-1.48 23.58.08 47.17-.3 70.73.2-.74 1.3-1.83 2.21-3.41 1.84-21.37 0-42.73-.02-64.09.01-1.87.03-3.74-.13-5.56-.57zm-.32 6.17c-.01-2.8 3.22-1.28 4.87-1.69 23.17.18 46.36-.29 69.52.24-.73 1.31-1.81 2.2-3.38 1.84-21.36.01-42.71-.02-64.06.01-2.32-.03-4.68.17-6.95-.4zm-1.7 5.84c.59-.37 1.76-1.11 2.35-1.48 21.42-.09 42.85 0 64.27-.04 3.48.01 6.97-.1 10.45.24-.73 1.27-1.77 2.21-3.33 1.83-22.7 0-45.4-.02-68.09.01-1.9.03-3.8-.13-5.65-.56zm15.61 7.87c-.4-2.61 2.29-4.19 3.75-5.93 1.63 1.87 4.75 3.93 3.33 6.79-1.17.1-2.33-.15-3.47-.34-1.24.26-2.87 1.02-3.61-.52zm9.38-1.87c.6-.37 1.79-1.12 2.39-1.49 16.9.07 33.81-.28 50.7.19-.72 1.42-1.89 2.19-3.5 1.86-14.67-.01-29.35-.02-44.02 0-1.87.03-3.74-.13-5.57-.56z"/></g></svg>