<svg width="238pt" height="272" viewBox="0 0 238 204" xmlns="http://www.w3.org/2000/svg"><g fill="#020202"><path d="M65.22 13.19C67.47 5.7 75.06.11 82.97.84 89.05.4 94.22 4.17 97.92 8.62c14.73-3.06 30.09-2.84 44.74.58 2.36-2.8 4.86-5.71 8.35-7.11 7.34-2.8 16.69-1.25 21.55 5.31 4.88 5.81 4.83 14.22 1.53 20.77 15.39 17.53 21.28 41.08 23.69 63.75.46 8.44 1.14 16.86 1.39 25.31 10.59.01 21.19.05 31.79-.04 2.39-.04 4.74.36 7.04.99v.51c-.27.17-.81.52-1.08.69-1.6.34-3.25.39-4.88.4-16.86-.02-33.72-.06-50.58.02-2.29 6.06-4.2 12.4-7.81 17.85-2.34 3.35-6.79 3.44-10.46 3.56 3.16 19.37 6.11 38.77 9.17 58.16.17 1.2.34 2.4.52 3.61-37.25.21-74.51.12-111.76.05.17-1.23.34-2.45.51-3.66 3.05-19.35 5.98-38.71 9.16-58.03-3.33-.36-7.27-.66-9.36-3.69-3.59-5.45-5.52-11.79-7.8-17.86-17.26-.1-34.51.03-51.76-.06l-1.09-.62c-.2-.12-.59-.34-.78-.46v-.46c2.29-.65 4.65-1.05 7.04-1.01 10.6.11 21.2.05 31.79.05.3-8.8.92-17.59 1.49-26.38 2.6-23.15 8.92-47.31 25.42-64.62-1.19-4.21-2.04-8.79-.52-13.04m8.53-7.46c-7.23 4.6-9.18 15.53-3.77 22.23 1.46 2.04 4.41 3.39 4.04 6.3-3.05-.88-5.01-3.47-6.94-5.8C50.1 46.54 44.66 71.98 42.34 95.91c14.01 6.9 29.21 11.11 44.6 13.52 19.15 2.94 38.7 3.2 57.93.86 17.51-2.18 34.88-6.58 50.78-14.36-2.19-23.22-7.44-47.59-23.05-65.74-1.69 1.63-3.44 3.28-5.69 4.12-.7-2.73 2.17-3.99 3.54-5.83 5.71-6.39 4.25-17.37-2.7-22.29-6.66-5.29-17.39-3.6-22.14 3.43-3.1 4.01-3.14 9.31-2.54 14.11-.54.06-1.62.19-2.16.25-1.01-4.12-.78-8.42.58-12.43-13.87-3.3-28.46-3.47-42.42-.58 1.54 4.07 2.11 8.54.89 12.78-.54.01-1.62.04-2.16.05.37-4.32.75-8.99-1.69-12.83C91.99 3.2 80.9.61 73.75 5.73m-31.38 93.1c-.51 6.12-.88 12.26-1.06 18.4 3.74 0 7.48-.01 11.21.05-.29-1.86-1.27-3.73-.67-5.62.42.17 1.26.51 1.69.67 2.65 6.48 4.51 13.29 7.54 19.63 1.22 2.56 2.58 5.69 5.68 6.32 3.65.76 8.23.29 10.83-2.63 1.83-4.61.15-9.68-1.13-14.22-.82-3.26-3.02-6.3-2.67-9.75 2.77.32 2.96 3.59 4.09 5.58 26.43-.04 52.87-.05 79.31 0 1.1-1.99 1.36-5.12 4.01-5.62.65 2.95-1.41 5.65-2.13 8.44-1.52 4.95-3.5 10.5-1.58 15.59 3.84 3.89 12.47 4.54 15.16-1.06 3.84-7.04 5.87-14.86 8.88-22.24.41-.19 1.24-.57 1.65-.76.73 1.88-.36 3.79-.63 5.66 4.71-.07 9.42-.04 14.13-.03-.16-6.14-.55-12.28-1.04-18.4-19.39 8.93-40.54 13.56-61.78 15-31.05 1.95-63.03-1.9-91.49-15.01m36.22 20.92c.45 1.56.9 3.12 1.34 4.68h75.21c.45-1.56.9-3.13 1.36-4.68-25.97.02-51.94.01-77.91 0m1.93 7.19c.28 3.26.88 6.82-.71 9.85-1.28 2.41-4.12 3.08-6.45 4.02-3.24 20.05-6.31 40.13-9.48 60.19h106.23c-3.16-20.13-6.3-40.27-9.48-60.39-1.93-1.06-4.34-1.79-5.39-3.89-1.54-3.03-.95-6.54-.67-9.78-24.68.01-49.37.01-74.05 0z"/><path d="M78.67 22.99c.43-4.11 5.41-6.63 9.01-4.67 2.38 1.01 3.05 3.73 3.93 5.89-.44.63-1.33 1.89-1.77 2.52-1.95-1.57-.76-5.11-3.3-6.2-2.11-1.15-5.08.29-5.35 2.7-.37 2.31 1.73 3.98 2.48 5.99l-2.78-.2c-1.18-1.8-2.72-3.73-2.22-6.03zm73.95-4.36c3.29-2.23 8.34-.41 9.37 3.44.89 2.52-.67 4.9-1.74 7.08-.67-.03-2.01-.07-2.68-.1.56-1.74 1.55-3.3 2.2-5 .21-2.7-2.95-4.82-5.37-3.56-2.45 1.02-1.61 4.26-3.12 6.01-.48-.42-1.45-1.25-1.94-1.66.67-2.23 1.04-4.97 3.28-6.21zm-54.46 42.6c3.57-1.21 5.27 4.64 1.63 5.52-3.48 1.08-5.08-4.5-1.63-5.52zm39.16.02c3.62-1.31 5.34 4.76 1.6 5.49-3.39 1.08-5.01-4.53-1.6-5.49zM110.2 69c2.21-1.39 2.33 1.53 2.98 2.87.87 3.85 5.89 5.52 9.09 3.42 2.42-1.33 2.71-4.35 3.79-6.63 2.83-.39 1.57 3.02 1.11 4.57-1.94 5.4-9.49 7.18-13.78 3.49-2.32-1.82-3.39-4.83-3.19-7.72zm16.49 70.67c8.08-.42 16.18-.05 24.26-.19 1.43-.38 5.8.34 3.17 2.33-9.06.24-18.16.22-27.23.01l-.2-2.15zm-47.6 9.58c19.96-.46 39.96-.07 59.94-.2 5.94.13 11.91-.28 17.84.21 1.65 2.87-2.09 2.14-3.81 2.33-24.04-.05-48.08.01-72.12-.03-1.24.47-3.63-1.15-1.85-2.31zm-.88 7.14c21.26-.35 42.55-.05 63.82-.15 5.23.11 10.47-.24 15.69.16 1.86 1.02-.21 2.95-1.67 2.35-25.35.02-50.7.01-76.05.01-1.53.62-4.11-1.38-1.79-2.37zm-1.01 7.23c26.91-.4 53.87-.13 80.8-.14 1.98-.45 2.25 3 .02 2.41-27.12.06-54.24.17-81.35-.05l-.59-2.02 1.12-.2zm-2.54 7.21c23.09-.49 46.2-.07 69.31-.21 5.74.08 11.5-.23 17.23.25-.28.54-.85 1.61-1.13 2.14-27.37.27-54.76.04-82.14.11-1.81.32-3.08-.36-3.27-2.29zm-.79 9.27c-.91-2.96 2.3-2.13 4.12-2.3 28.02.1 56.05-.15 84.07.12l-.44 2.15c-5.85.58-11.76.09-17.64.25-23.37-.15-46.75.28-70.11-.22zm-.78 5.08c24.28-.43 48.61-.06 72.91-.18 5.62.12 11.27-.26 16.87.19 1.61 2.89-2.07 2.14-3.8 2.34-28.06-.06-56.13 0-84.19-.03-1.19.39-3.67-1.15-1.79-2.32zm29.99 7.17c18.96-.42 37.95-.03 56.91-.19 1.47.28 3.63-.61 4.54.98-.22 1.9-2.09 1.52-3.47 1.57-18.71-.04-37.42.01-56.13-.02-1.38.51-3.34-1.09-1.85-2.34z"/></g><path d="M73.75 5.73C80.9.61 91.99 3.2 96.11 10.97c2.44 3.84 2.06 8.51 1.69 12.83-2.07.04-4.13.25-6.19.41-.88-2.16-1.55-4.88-3.93-5.89-3.6-1.96-8.58.56-9.01 4.67-.5 2.3 1.04 4.23 2.22 6.03-3.04.56-5.55 2.44-6.87 5.24.37-2.91-2.58-4.26-4.04-6.3-5.41-6.7-3.46-17.63 3.77-22.23zm71.86 3.89c4.75-7.03 15.48-8.72 22.14-3.43 6.95 4.92 8.41 15.9 2.7 22.29-1.37 1.84-4.24 3.1-3.54 5.83-1.29-2.69-3.67-4.68-6.66-5.16 1.07-2.18 2.63-4.56 1.74-7.08-1.03-3.85-6.08-5.67-9.37-3.44-2.24 1.24-2.61 3.98-3.28 6.21-1.96-.9-4.12-1.3-6.27-1.11-.6-4.8-.56-10.1 2.54-14.11zm-32.28 23.92c14.79-1.05 30.24 1.96 42.68 10.31 7.1 4.78 13.16 11.66 15.46 20.05 1.75 6.52 1.31 14.07-2.9 19.6-4.25 5.61-11.06 8.45-17.67 10.21-11.05 2.83-22.55 3.17-33.89 3.16-11.49-.19-23.21-.73-34.18-4.47-6.71-2.25-13.38-6.58-15.92-13.49-3.07-8.52-.63-18.26 4.73-25.33 9.76-12.79 26.07-18.83 41.69-20.04M98.16 61.23c-3.45 1.02-1.85 6.6 1.63 5.52 3.64-.88 1.94-6.73-1.63-5.52m39.16.02c-3.41.96-1.79 6.57 1.6 5.49 3.74-.73 2.02-6.8-1.6-5.49M84.8 72.22c2.44 4.28 8.12 4.63 12.24 2.82 1.49-.62 2.32-2.24 1.68-3.78-4.05-3.24-10.31-2.75-13.92.96M110.2 69c-.2 2.89.87 5.9 3.19 7.72 4.29 3.69 11.84 1.91 13.78-3.49.46-1.55 1.72-4.96-1.11-4.57-1.08 2.28-1.37 5.3-3.79 6.63-3.2 2.1-8.22.43-9.09-3.42-.65-1.34-.77-4.26-2.98-2.87m32.09.41c-2.01.31-5.2 2.45-3.46 4.68 2.84 2.45 7.14 2.33 10.52 1.16 1.67-.5 2.93-2.22 2.21-3.96-2.43-2.28-6.16-2.4-9.27-1.88zM42.37 98.83c28.46 13.11 60.44 16.96 91.49 15.01 21.24-1.44 42.39-6.07 61.78-15 .49 6.12.88 12.26 1.04 18.4-4.71-.01-9.42-.04-14.13.03.27-1.87 1.36-3.78.63-5.66-.41.19-1.24.57-1.65.76-3.01 7.38-5.04 15.2-8.88 22.24-2.69 5.6-11.32 4.95-15.16 1.06-1.92-5.09.06-10.64 1.58-15.59.72-2.79 2.78-5.49 2.13-8.44-2.65.5-2.91 3.63-4.01 5.62-26.44-.05-52.88-.04-79.31 0-1.13-1.99-1.32-5.26-4.09-5.58-.35 3.45 1.85 6.49 2.67 9.75 1.28 4.54 2.96 9.61 1.13 14.22-2.6 2.92-7.18 3.39-10.83 2.63-3.1-.63-4.46-3.76-5.68-6.32-3.03-6.34-4.89-13.15-7.54-19.63-.43-.16-1.27-.5-1.69-.67-.6 1.89.38 3.76.67 5.62-3.73-.06-7.47-.05-11.21-.05.18-6.14.55-12.28 1.06-18.4z" fill="#838383"/><path d="M99.07 10.97c13.96-2.89 28.55-2.72 42.42.58-1.36 4.01-1.59 8.31-.58 12.43.54-.06 1.62-.19 2.16-.25 2.15-.19 4.31.21 6.27 1.11.49.41 1.46 1.24 1.94 1.66 1.51-1.75.67-4.99 3.12-6.01 2.42-1.26 5.58.86 5.37 3.56-.65 1.7-1.64 3.26-2.2 5 .67.03 2.01.07 2.68.1 2.99.48 5.37 2.47 6.66 5.16 2.25-.84 4-2.49 5.69-4.12 15.61 18.15 20.86 42.52 23.05 65.74-15.9 7.78-33.27 12.18-50.78 14.36-19.23 2.34-38.78 2.08-57.93-.86-15.39-2.41-30.59-6.62-44.6-13.52 2.32-23.93 7.76-49.37 24.74-67.45 1.93 2.33 3.89 4.92 6.94 5.8 1.32-2.8 3.83-4.68 6.87-5.24l2.78.2c-.75-2.01-2.85-3.68-2.48-5.99.27-2.41 3.24-3.85 5.35-2.7 2.54 1.09 1.35 4.63 3.3 6.2.44-.63 1.33-1.89 1.77-2.52 2.06-.16 4.12-.37 6.19-.41.54-.01 1.62-.04 2.16-.05 1.22-4.24.65-8.71-.89-12.78m14.26 22.57c-15.62 1.21-31.93 7.25-41.69 20.04-5.36 7.07-7.8 16.81-4.73 25.33 2.54 6.91 9.21 11.24 15.92 13.49 10.97 3.74 22.69 4.28 34.18 4.47 11.34.01 22.84-.33 33.89-3.16 6.61-1.76 13.42-4.6 17.67-10.21 4.21-5.53 4.65-13.08 2.9-19.6-2.3-8.39-8.36-15.27-15.46-20.05-12.44-8.35-27.89-11.36-42.68-10.31zM.78 119.11l1.09.62c17.25.09 34.5-.04 51.76.06 2.28 6.07 4.21 12.41 7.8 17.86 2.09 3.03 6.03 3.33 9.36 3.69-3.18 19.32-6.11 38.68-9.16 58.03-20.08.02-40.17 0-60.26.01.02-24.8-.03-49.6.03-74.39-.07-1.97.2-4.03-.62-5.88zm77.81.64c25.97.01 51.94.02 77.91 0-.46 1.55-.91 3.12-1.36 4.68H79.93c-.44-1.56-.89-3.12-1.34-4.68zm102.87.05c16.86-.08 33.72-.04 50.58-.02 1.63-.01 3.28-.06 4.88-.4-.22 1.53-.33 3.07-.31 4.62.04 25.12.01 50.25.02 75.38-21.43-.01-42.85.01-64.27-.01-3.06-19.39-6.01-38.79-9.17-58.16 3.67-.12 8.12-.21 10.46-3.56 3.61-5.45 5.52-11.79 7.81-17.85zm-100.94 7.14c24.68.01 49.37.01 74.05 0-.28 3.24-.87 6.75.67 9.78 1.05 2.1 3.46 2.83 5.39 3.89 3.18 20.12 6.32 40.26 9.48 60.39H63.88c3.17-20.06 6.24-40.14 9.48-60.19 2.33-.94 5.17-1.61 6.45-4.02 1.59-3.03.99-6.59.71-9.85m46.17 12.73l.2 2.15c9.07.21 18.17.23 27.23-.01 2.63-1.99-1.74-2.71-3.17-2.33-8.08.14-16.18-.23-24.26.19m-47.6 9.58c-1.78 1.16.61 2.78 1.85 2.31 24.04.04 48.08-.02 72.12.03 1.72-.19 5.46.54 3.81-2.33-5.93-.49-11.9-.08-17.84-.21-19.98.13-39.98-.26-59.94.2m-.88 7.14c-2.32.99.26 2.99 1.79 2.37 25.35 0 50.7.01 76.05-.01 1.46.6 3.53-1.33 1.67-2.35-5.22-.4-10.46-.05-15.69-.16-21.27.1-42.56-.2-63.82.15m-1.01 7.23l-1.12.2.59 2.02c27.11.22 54.23.11 81.35.05 2.23.59 1.96-2.86-.02-2.41-26.93.01-53.89-.26-80.8.14m-2.54 7.21c.19 1.93 1.46 2.61 3.27 2.29 27.38-.07 54.77.16 82.14-.11.28-.53.85-1.6 1.13-2.14-5.73-.48-11.49-.17-17.23-.25-23.11.14-46.22-.28-69.31.21m-.79 9.27c23.36.5 46.74.07 70.11.22 5.88-.16 11.79.33 17.64-.25l.44-2.15c-28.02-.27-56.05-.02-84.07-.12-1.82.17-5.03-.66-4.12 2.3m-.78 5.08c-1.88 1.17.6 2.71 1.79 2.32 28.06.03 56.13-.03 84.19.03 1.73-.2 5.41.55 3.8-2.34-5.6-.45-11.25-.07-16.87-.19-24.3.12-48.63-.25-72.91.18m16.99 9.87c-.18 2.7 2.8 2.72 4.48 1.55 1.37.55 2.83 1.24 4.26.39 1.36-3.37-2.21-5.64-4.1-7.83-1.69 1.82-3.84 3.44-4.64 5.89m13-2.7c-1.49 1.25.47 2.85 1.85 2.34 18.71.03 37.42-.02 56.13.02 1.38-.05 3.25.33 3.47-1.57-.91-1.59-3.07-.7-4.54-.98-18.96.16-37.95-.23-56.91.19z" fill="#fff"/><path d="M84.8 72.22c3.61-3.71 9.87-4.2 13.92-.96.64 1.54-.19 3.16-1.68 3.78-4.12 1.81-9.8 1.46-12.24-2.82zm57.49-2.81c3.11-.52 6.84-.4 9.27 1.88.72 1.74-.54 3.46-2.21 3.96-3.38 1.17-7.68 1.29-10.52-1.16-1.74-2.23 1.45-4.37 3.46-4.68z" fill="#616161"/><path fill="#e74b3b" d="M90.08 195.05c.8-2.45 2.95-4.07 4.64-5.89 1.89 2.19 5.46 4.46 4.1 7.83-1.43.85-2.89.16-4.26-.39-1.68 1.17-4.66 1.15-4.48-1.55z"/></svg>