<?xml version="1.0" standalone="no"?>
<!DOCTYPE svg PUBLIC "-//W3C//DTD SVG 1.1//EN" "http://www.w3.org/Graphics/SVG/1.1/DTD/svg11.dtd" >
<svg xmlns="http://www.w3.org/2000/svg">
<metadata>Generated by IcoMoon</metadata>
<defs>
<font id="icomoon" horiz-adv-x="1024">
<font-face units-per-em="1024" ascent="960" descent="-64" />
<missing-glyph horiz-adv-x="1024" />
<glyph unicode="&#x20;" horiz-adv-x="512" d="" />
<glyph unicode="&#xe910;" d="M490.124 960h42.356c122.694-5.958 243.247-55.389 331.962-140.753 94.394-88.529 151.366-213.83 159.558-342.668v-54.551c-7.354-132.096-66.467-260.655-164.305-349.929-86.202-80.896-201.263-128.186-318.836-136.099h-55.11c-142.895 7.82-281.228 77.172-370.967 188.881-68.236 82.851-107.52 187.671-114.781 294.447v54.458c7.354 129.862 64.419 256.745 159.93 345.46 88.157 85.364 208.151 134.237 330.193 140.753zM496.733 750.173c-89.274-39.936-178.176-80.896-267.357-121.204-8.564-5.958-25.693-8.751-23.924-22.435-1.676-96.256-0.279-192.605-0.559-288.954 0.372-16.57-1.489-39.191 17.873-46.266 78.848-39.936 159.092-77.172 238.592-115.898 17.594-7.54 37.236-21.318 56.506-10.519 91.974 40.495 183.11 83.037 274.432 125.021 12.195 5.399 27.276 13.405 25.879 29.137 2.327 93.277 0.372 186.554 1.117 279.738-1.489 16.384 4.003 40.215-15.732 47.663-86.668 41.984-174.825 80.896-262.33 121.204-13.777 7.168-30.255 10.985-44.497 2.513z" />
<glyph unicode="&#xe911;" d="M442.833 701.859c23.087 11.078 45.708 23.831 70.284 31.465 13.871-1.117 26.252-8.378 38.912-13.591 70.563-33.047 142.243-63.953 212.62-97.466-28.579-13.126-59.671-43.101-91.974-23.552-76.335 34.909-155.183 64.791-229.841 103.145z" />
<glyph unicode="&#xe912;" d="M258.048 619.008c33.885 16.291 68.422 31.558 103.61 44.87 81.548-40.029 165.516-75.217 245.667-117.853-31.092-14.057-60.416-35.002-94.301-41.146-86.202 34.909-170.822 74.38-254.976 114.129z" />
<glyph unicode="&#xe913;" d="M229.283 608.396c81.548-34.071 160.954-72.704 241.943-108.172 14.708-7.633 36.957-14.243 36.492-34.723 2.048-101.748 0.279-203.59-0.465-305.431-83.596 38.633-166.447 78.662-249.67 118.039-11.45 6.609-29.417 13.498-27.834 29.789-0.465 100.073-1.676 200.332-0.465 300.497z" />
<glyph unicode="&#xe914;" d="M714.752 571.439c24.39 17.687 53.62 27.089 80.337 40.401 1.769-91.788 0.372-183.668 0.838-275.456-0.559-17.78 1.489-42.822-19.549-49.617-81.734-38.353-161.792-80.896-245.853-113.943 0.559 100.724-3.537 201.728 2.048 302.173 22.993 29.417 65.35 37.423 97.466 55.575 1.303-49.711 0.279-99.421 0.745-149.132 24.948 13.684 51.2 25.321 74.287 42.077 13.684 47.942-4.561 100.445 9.681 147.921z" />
<glyph unicode="&#xe915;" d="M496.733 750.173c14.243 8.471 30.72 4.655 44.497-2.513 87.505-40.308 175.663-79.22 262.33-121.204 19.735-7.447 14.243-31.279 15.732-47.663-0.745-93.184 1.21-186.461-1.117-279.738 1.396-15.732-13.684-23.738-25.879-29.137-91.322-41.984-182.458-84.527-274.432-125.021-19.27-10.799-38.912 2.979-56.506 10.519-79.5 38.726-159.744 75.962-238.592 115.898-19.363 7.075-17.501 29.696-17.873 46.266 0.279 96.349-1.117 192.698 0.559 288.954-1.769 13.684 15.36 16.477 23.924 22.435 89.181 40.308 178.083 81.268 267.357 121.204zM442.833 701.859c74.659-38.353 153.507-68.236 229.841-103.145 32.303-19.549 63.395 10.426 91.974 23.552-70.377 33.513-142.057 64.419-212.62 97.466-12.66 5.213-25.041 12.474-38.912 13.591-24.576-7.633-47.197-20.387-70.284-31.465zM258.048 619.008c84.154-39.75 168.774-79.22 254.976-114.129 33.885 6.144 63.209 27.089 94.301 41.146-80.151 42.636-164.119 77.824-245.667 117.853-35.188-13.312-69.725-28.579-103.61-44.87zM229.283 608.396c-1.21-100.166 0-200.425 0.465-300.497-1.583-16.291 16.384-23.18 27.834-29.789 83.223-39.377 166.074-79.407 249.67-118.039 0.745 101.841 2.513 203.683 0.465 305.431 0.465 20.48-21.783 27.089-36.492 34.723-80.989 35.468-160.396 74.1-241.943 108.172zM714.752 571.439c-14.243-47.476 4.003-99.98-9.681-147.921-23.087-16.756-49.338-28.393-74.287-42.077-0.465 49.711 0.559 99.421-0.745 149.132-32.116-18.153-74.473-26.159-97.466-55.575-5.585-100.445-1.489-201.449-2.048-302.173 84.061 33.047 164.119 75.59 245.853 113.943 21.039 6.796 18.991 31.837 19.549 49.617-0.465 91.788 0.931 183.668-0.838 275.456-26.717-13.312-55.948-22.714-80.337-40.401z" />
<glyph unicode="&#xe916;" d="M140.971 686.114c13.005 3.447 26.658 1.604 39.936 1.946 133.154-0.102 266.342-0.102 399.497 0 8.431-0.171 17.954-1.092 24.064-7.646 7.27-7.1 7.953-17.954 8.090-27.511-0.239-79.735-0.171-159.437-0.034-239.172 0.41-11.947-3.55-26.146-15.633-31.095-12.151-2.731-24.747-1.399-37.103-1.604-136.567 0.171-273.169-0.102-409.702 0.137-14.268-1.263-27.068 11.571-25.873 25.771-0.068 84.241 0.034 168.516-0.034 252.757-1.092 11.435 5.939 22.63 16.794 26.419z" />
<glyph unicode="&#xe917;" d="M630.511 625.766c41.233 1.604 82.534-0.034 123.802 0.785 10.377-0.512 24.098 2.423 30.242-8.465 27.511-38.537 54.135-77.687 82.091-115.883 4.164-6.178 9.626-12.356 9.66-20.207 1.57-43.759-1.946-87.723 1.604-131.379 10.82-2.423 28.058-3.55 27.887-18.466 0.102-14.097 4.437-33.519-9.591-42.53-18.193-2.526-36.693-0.99-55.023-0.819-2.901 21.879-9.387 44.169-25.361 60.245-24.201 27.853-65.673 36.966-99.977 24.644-21.743-7.953-40.277-24.201-50.62-44.919-6.588-12.356-8.567-26.385-10.889-40.004-77.039-0.614-154.078-0.034-231.083-0.239-22.972 0.375-45.978-0.956-68.915 0.717-1.399 21.197-9.933 40.653-20.139 58.914 78.609 0.444 157.218 0.034 235.827 0.205 19.9 0.205 39.936-1.229 59.767 1.638-0.273 77.039-0.068 154.078-0.171 231.117-0.205 14.882-0.341 29.798 0.887 44.646zM666.624 583.543c-0.205-26.487-0.375-52.975 0.102-79.462 50.756 0.068 101.478-0.102 152.201 0.068-16.828 26.692-34.099 53.18-52.122 79.087-33.348 1.229-66.799 0.614-100.181 0.307z" />
<glyph unicode="&#xe918;" d="M237.431 366.694c24.201 4.676 51.712 3.891 71.782-12.22 30.106-20.412 42.155-61.85 29.218-95.607-11.913-30.037-42.633-53.009-75.537-52.087-19.968-1.092-39.902 6.076-54.921 19.183-25.293 21.094-35.601 58.539-24.030 89.463 8.431 24.235 29.184 43.52 53.487 51.268zM244.224 329.387c-14.985-6.588-26.487-21.777-27.443-38.298-2.15-23.62 18.5-47.514 42.598-46.831 25.225-2.731 49.459 21.333 46.729 46.558-0.137 29.525-35.328 50.654-61.884 38.571z" />
<glyph unicode="&#xe919;" d="M728.405 367.582c17.579 2.15 36.489 2.867 52.873-4.983 25.668-11.366 44.783-36.659 47.753-64.717 4.881-32.324-13.312-65.365-41.472-81.101-17.442-10.957-39.151-11.605-58.914-8.465-32.256 7.441-58.641 35.908-62.771 68.915-6.383 40.209 22.938 81.818 62.532 90.351zM732.058 329.865c-13.926-5.257-25.532-17.681-28.262-32.563-5.325-22.050 9.626-46.421 31.505-51.917 13.517-2.458 29.116-1.775 39.834 7.885 14.507 11.23 21.231 31.949 14.507 49.254-7.509 22.835-35.021 36.557-57.583 27.341z" />
<glyph unicode="&#xe91a;" d="M117.521 325.291c-0.512 8.909 2.287 21.197 12.868 22.391 19.934 1.741 40.004 0.375 59.972 0.58-12.39-17.545-20.958-37.615-21.811-59.324-14.234-0.102-29.15-2.697-42.906 1.638-11.196 7.748-7.509 23.108-8.124 34.714z" />
<glyph unicode="&#xe91b;" d="M189.645 842.069c80.384 65.468 181.248 105.404 284.638 112.879 39.117 0.478 78.711 2.56 117.316-5.052 26.897-5.052 53.658-11.127 79.872-19.046 69.7-23.211 134.417-61.235 188.245-111.241 83.456-77.073 140.698-182.613 157.355-295.151 1.946-10.752 4.506-21.367 6.929-32.017v-92.809c-3.55-13.961-6.724-28.023-9.079-42.223-16.759-95.607-62.157-185.685-128.649-256.341-74.957-81.033-176.981-136.602-285.867-154.999-42.974-6.144-86.699-11.708-130.014-5.769-65.434 4.847-129.877 22.494-188.382 52.258-147.934 73.318-257.707 222.481-276.446 387.345-2.048 16.521-4.574 33.007-5.564 49.63v33.587c1.195 17.749 3.755 35.328 5.495 53.043 16.213 127.010 84.48 245.862 184.149 325.905zM140.971 686.114c-10.854-3.789-17.886-14.985-16.794-26.419 0.068-84.241-0.034-168.516 0.034-252.757-1.195-14.199 11.605-27.034 25.873-25.771 136.533-0.239 273.135 0.034 409.702-0.137 12.356 0.205 24.951-1.126 37.103 1.604 12.083 4.949 16.043 19.149 15.633 31.095-0.137 79.735-0.205 159.437 0.034 239.172-0.137 9.557-0.819 20.412-8.090 27.511-6.11 6.554-15.633 7.475-24.064 7.646-133.154-0.102-266.342-0.102-399.497 0-13.278-0.341-26.931 1.502-39.936-1.946zM630.511 625.766c-1.229-14.848-1.092-29.764-0.887-44.646 0.102-77.039-0.102-154.078 0.171-231.117-19.831-2.867-39.868-1.434-59.767-1.638-78.609-0.171-157.218 0.239-235.827-0.205 10.206-18.261 18.739-37.717 20.139-58.914 22.938-1.673 45.943-0.341 68.915-0.717 77.005 0.205 154.044-0.375 231.083 0.239 2.321 13.619 4.301 27.648 10.889 40.004 10.342 20.719 28.877 36.966 50.62 44.919 34.304 12.322 75.776 3.209 99.977-24.644 15.974-16.077 22.46-38.366 25.361-60.245 18.33-0.171 36.83-1.707 55.023 0.819 14.029 9.011 9.694 28.433 9.591 42.53 0.171 14.916-17.067 16.043-27.887 18.466-3.55 43.657-0.034 87.62-1.604 131.379-0.034 7.851-5.495 14.029-9.66 20.207-27.955 38.195-54.579 77.346-82.091 115.883-6.144 10.889-19.866 7.953-30.242 8.465-41.267-0.819-82.569 0.819-123.802-0.785zM237.431 366.694c-24.303-7.748-45.056-27.034-53.487-51.268-11.571-30.925-1.263-68.369 24.030-89.463 15.019-13.107 34.953-20.275 54.921-19.183 32.905-0.922 63.625 22.050 75.537 52.087 12.937 33.758 0.887 75.196-29.218 95.607-20.070 16.111-47.582 16.896-71.782 12.22zM728.405 367.582c-39.595-8.533-68.915-50.142-62.532-90.351 4.13-33.007 30.515-61.474 62.771-68.915 19.763-3.14 41.472-2.492 58.914 8.465 28.16 15.735 46.353 48.777 41.472 81.101-2.97 28.058-22.084 53.35-47.753 64.717-16.384 7.851-35.294 7.134-52.873 4.983zM117.521 325.291c0.614-11.605-3.072-26.965 8.124-34.714 13.756-4.335 28.672-1.741 42.906-1.638 0.853 21.709 9.421 41.779 21.811 59.324-19.968-0.205-40.038 1.161-59.972-0.58-10.581-1.195-13.38-13.483-12.868-22.391z" />
<glyph unicode="&#xe91c;" d="M666.624 583.543c33.382 0.307 66.833 0.922 100.181-0.307 18.022-25.907 35.294-52.395 52.122-79.087-50.722-0.171-101.444 0-152.201-0.068-0.478 26.487-0.307 52.975-0.102 79.462z" />
<glyph unicode="&#xe91d;" d="M244.224 329.387c26.556 12.083 61.747-9.045 61.884-38.571 2.731-25.225-21.504-49.289-46.729-46.558-24.098-0.683-44.749 23.211-42.598 46.831 0.956 16.521 12.459 31.71 27.443 38.298z" />
<glyph unicode="&#xe91e;" d="M732.058 329.865c22.562 9.216 50.074-4.506 57.583-27.341 6.724-17.306 0-38.025-14.507-49.254-10.718-9.66-26.317-10.342-39.834-7.885-21.879 5.495-36.83 29.867-31.505 51.917 2.731 14.882 14.336 27.307 28.262 32.563z" />
<glyph unicode="&#xe91f;" d="M437.946 934.502c91.821 13.359 187.372 0.271 271.869-38.18 102.603-46.25 188.185-129.187 237.419-230.434 46.995-95.144 60.965-206.021 40.214-310.048-21.158-108.368-80.971-208.462-165.807-278.989-140.58-120.574-351.822-148.039-518.849-68.289-100.569 46.589-184.252 128.576-232.74 228.332-46.046 93.109-60.491 201.206-41.503 303.267 18.039 99.687 68.493 193.068 141.732 263.053 72.629 70.324 167.638 117.048 267.664 131.289zM279.396 619.978c-52.692-65.102-75.003-155.092-54.252-236.741 88.905 20.819 175.775 49.301 261.696 80.292-8.206 18.649-23.464 38.586-15.665 60.016 5.493 22.514 27.668 38.722 50.793 37.569 27.329 3.662 47.267-17.496 67.95-31.466 19.598 10.783 39.332 21.362 59.27 31.466-23.464 49.301-55.405 95.958-68.018 149.531-106.401 37.095-232.468-2.509-301.775-90.668zM635.762 693.421c20.344-41.163 41.231-82.056 60.83-123.49 25.498 10.85 51.403 20.751 77.715 29.567-36.552 36.755-69.239 77.241-105.452 114.335-7.527 8.68-19.192 14.58-30.449 8.952-15.936-2.306-6.985-20.751-2.645-29.364zM736.873 542.601c-74.799-31.466-149.463-67.34-212.124-119.625 22.108-0.136 44.283 0.407 65.984 5.018 91.957 17.971 182.014 47.131 266.104 88.566 21.294 12.342 48.962 23.328 55.744 49.64-3.391 16.14-23.328 21.836-37.773 18.581-47.741-7.392-93.448-23.803-137.935-42.181zM513.56 515.408c6.375-13.766 13.292-27.329 20.073-40.892 9.426 6.375 18.785 12.817 28.211 19.192-14.987 9.494-29.703 21.429-48.284 21.701zM751.657 428.944c15.462-48.081 26.99-97.45 43.944-144.988 7.731-20.683 35.874-0.068 34.45 16.14 4.476 52.963-3.119 106.13-2.034 159.229-25.295-10.511-50.59-21.158-76.359-30.381zM105.519 349.398c2.306-31.127 38.654-37.298 63.746-37.705 94.94 4.137 185.269 37.298 274.581 66.933 9.697 5.493 33.365 7.527 24.142 23.735-9.087 6.849-19.734-1.628-29.16-3.255-78.868-26.855-158.55-56.49-242.030-64.085-21.633 1.085-54.116-7.324-65.984 16.615-8.952 25.837 18.988 44.419 19.87 69.442-26.041-13.427-44.419-42.384-45.165-71.68zM646.612 387.713c-5.357-20.955-6.849-44.012-19.666-62.118-17.021-21.090-51.132-30.381-74.054-13.224-17.496 10.783-20.955 32.415-25.634 50.657-81.581-35.67-167.977-58.795-253.694-82.123 53.302-66.119 135.29-111.691 221.482-109.521 99.145-3.798 192.051 55.54 244.132 137.596-10.986 31.195-19.124 63.339-28.346 95.076-21.294-5.832-42.655-11.528-64.22-16.343zM566.252 388.391c4.95-14.784 10.24-29.432 16.411-43.74 10.104 16.004 15.258 34.246 20.48 52.285-12.274-3.052-24.549-5.9-36.891-8.545z" />
<glyph unicode="&#xe920;" d="M279.396 619.978c69.306 88.159 195.374 127.763 301.775 90.668 12.614-53.574 44.554-100.23 68.018-149.531-19.937-10.104-39.672-20.683-59.27-31.466-20.683 13.97-40.621 35.128-67.95 31.466-23.125 1.153-45.3-15.055-50.793-37.569-7.799-21.429 7.46-41.367 15.665-60.016-85.921-30.991-172.792-59.473-261.696-80.292-20.751 81.649 1.56 171.639 54.252 236.741z" />
<glyph unicode="&#xe921;" d="M635.762 693.421c-4.34 8.612-13.292 27.058 2.645 29.364 11.257 5.629 22.921-0.271 30.449-8.952 36.213-37.095 68.9-77.58 105.452-114.335-26.312-8.816-52.217-18.717-77.715-29.567-19.598 41.435-40.485 82.327-60.83 123.49z" />
<glyph unicode="&#xe922;" d="M736.873 542.601c44.486 18.378 90.193 34.789 137.935 42.181 14.445 3.255 34.382-2.441 37.773-18.581-6.781-26.312-34.45-37.298-55.744-49.64-84.090-41.435-174.148-70.595-266.104-88.566-21.701-4.611-43.876-5.154-65.984-5.018 62.661 52.285 137.325 88.159 212.124 119.625z" />
<glyph unicode="&#xe923;" d="M513.56 515.408c18.581-0.271 33.297-12.207 48.284-21.701-9.426-6.375-18.785-12.817-28.211-19.192-6.781 13.563-13.699 27.126-20.073 40.892z" />
<glyph unicode="&#xe924;" d="M751.657 428.944c25.77 9.223 51.064 19.87 76.359 30.381-1.085-53.099 6.51-106.265 2.034-159.229 1.424-16.208-26.719-36.823-34.45-16.14-16.954 47.538-28.482 96.907-43.944 144.988z" />
<glyph unicode="&#xe925;" d="M105.519 349.398c0.746 29.296 19.124 58.253 45.165 71.68-0.882-25.024-28.821-43.605-19.87-69.442 11.868-23.939 44.351-15.53 65.984-16.615 83.48 7.595 163.162 37.23 242.030 64.085 9.426 1.628 20.073 10.104 29.16 3.255 9.223-16.208-14.445-18.242-24.142-23.735-89.312-29.635-179.641-62.796-274.581-66.933-25.091 0.407-61.44 6.578-63.746 37.705z" />
<glyph unicode="&#xe926;" d="M646.612 387.713c21.565 4.815 42.927 10.511 64.22 16.343 9.223-31.737 17.361-63.881 28.346-95.076-52.082-82.056-144.988-141.393-244.132-137.596-86.192-2.17-168.18 43.401-221.482 109.521 85.718 23.328 172.113 46.453 253.694 82.123 4.679-18.242 8.138-39.875 25.634-50.657 22.921-17.157 57.032-7.866 74.054 13.224 12.817 18.106 14.309 41.163 19.666 62.118z" />
<glyph unicode="&#xe927;" d="M566.252 388.391c12.342 2.645 24.617 5.493 36.891 8.545-5.222-18.039-10.376-36.281-20.48-52.285-6.171 14.309-11.461 28.957-16.411 43.74z" />
</font>
</defs>
</svg>
