<svg width="299pt" height="220pt" viewBox="0 0 299 220" xmlns="http://www.w3.org/2000/svg"><path opacity=".98" d="M94.27 8.19c-.45-3.1 1.85-6.15 4.85-6.82 2.3-.21 4.45.73 6.4 1.82.41 1.42.82 2.83 1.22 4.25 2.09-1.53 4.4-3.35 7.18-2.9 4.39.19 7.52 5.76 5.02 9.48-3.41 5.34-9.77 7.53-15.49 9.4-4.23-4.11-8.63-9.09-9.18-15.23zm55.15-2.98c4.93-.97 9.96 2.22 11.43 6.97 2.59 5.83-.78 11.84-2.24 17.48 3.04-.57 6.15-1.06 9.21-.36 3.4 2 5.65 5.59 5.37 9.62-.6 5.19-4.4 9.25-8.01 12.73 1.73.46 3.46.93 5.21 1.33 2.1-8.77 8.23-16.41 16.46-20.15 7.69-3.52 15.52-6.72 23.48-9.55 4.96-1.6 10.42-2.33 15.52-1.03 3.91 1.08 5.44 5.22 6.24 8.79.39 4.83-2.52 9.06-5.91 12.19-2.86 3.32-6.57 5.67-10.42 7.67 3.81 1.25 7.92 2.6 10.46 5.93 3.32 4.22 1.49 10.77-2.56 13.84-4.76 3.5-10.67 4.81-16.36 5.9 4.11 3.01 7.68 7.24 8.25 12.48.04 5.55-5.19 9.72-10.44 10a41.805 41.805 0 0 1-16.19-3.48c.7 2.71 2.15 5.52 1.39 8.37-.24 2.51-2.65 3.69-4.19 5.35 2.9 4.2 8.57 5.77 11.73 9.91 3.1 3.41 2.42 8.82-.35 12.22-9.67 13.04-19.25 26.14-28.96 39.15-2.03 2.57-5.15 5.06-8.63 4.49-3.93-.19-6.8-3.17-9.89-5.22-22.46-16.47-44.95-32.9-67.43-49.34-2.91-2-6.11-4.16-7.42-7.59-.94-3.53.39-7.31 2.6-10.09 10.21-12.83 20.15-25.88 30.34-38.72 2.75-3.92 8.76-4.46 12.53-1.78 3.42 2.33 6.8 4.74 10.04 7.32 1.8-8.37-4.49-15.23-5.13-23.29-1.11-5.6.88-11.28 3.84-15.99 5.33-9.3 10.51-19.45 20.03-25.15m-2.65 8.57c-5.44 7.15-9.85 15-14.15 22.87-2.44 4.37-1.55 9.64-.16 14.19 2.34 7.48 4.71 15.15 4.17 23.09 4.18 2.99 8.32 6.05 12.49 9.05 9.52-5.14 16.57-14.47 19.74-24.75-3.89-1.01-7.93-.91-11.91-.76-1.8.49-2.65-1.4-3.65-2.44 4.09-5.5 10.99-8.65 13.71-15.19 1.24-2.51-.63-6.56-3.82-5.63-4.6 1.25-8.48 4.11-12.41 6.67-1.58-.77-2.83-1.93-3.4-3.63 3.86-6.18 7.93-12.71 8.65-20.13.41-2.78-1.16-5.69-3.81-6.72-2.16.42-4.02 1.76-5.45 3.38m51.29 20.27c-4.97 2.28-10.24 4.04-14.77 7.16-2.74 1.81-3.9 4.99-5.33 7.78-3.43 6.24-3.51 13.72-7.08 19.9-4.19 7.77-10.52 14.31-18.02 18.93-2.11 1.32-4.33 2.48-6.24 4.1-2.07 2.16-2.66 5.85-.95 8.39 3 5.12 8.71 8.65 14.73 8.34 3.29-4-.1-8.84-1.24-12.98-.5-2.6 3.55-4.02 4.92-1.75 2.89 3.8 6.73 6.78 10.91 9.03 2.96 1.31 6.59 2.59 9.63.76 1.79-4.05-1.63-7.66-3.81-10.73-1.42-2.24-4.55-3.88-4.04-6.9.75-2.31 3.38-1.82 4.96-.75 7.09 4.03 14.61 8.28 22.99 8.42 2.82-.05 6.85-2.39 5.31-5.67-2.81-6.49-9.81-9.43-15.4-13.06.37-1.47.17-4.1 2.39-3.93 8.12-.75 18.13.98 24.01-6.09 2.66-2.38.41-6.48-2.45-7.48-4.98-1.69-10.33-1.48-15.51-1.88-1.42-.08-1.82-1.87-2.75-2.68.85-1.01 1.61-2.22 2.94-2.65 7.22-3.01 14.62-6.22 20.37-11.67 2.37-2.18 3.59-5.23 3.42-8.45-1.08-1.24-2.07-2.95-3.96-2.91-8.99-1.26-17.02 3.56-25.03 6.77m-96.49 53.61c-5.45 7.59-11.74 14.57-17.08 22.25 20.35 14.82 40.43 30.02 60.8 44.83 5.15 3.89 10.11 8.16 15.81 11.23 2.58-3.71 5.48-7.2 8.02-10.94 5.16-9.05 12.09-16.92 18.04-25.44-5.13-1.27-10.45-.5-15.67-.82-12.79-.64-25.6-.58-38.36-1.43-3.34-.28-4.07-3.99-5.06-6.54-2.54-7.68-6.17-14.99-8.01-22.89-2.67-8-5.6-15.92-8.49-23.84-3.43 4.45-7.28 8.62-10 13.59m19.76-13.93c2.61 7.16 4.17 14.65 7.17 21.67 2.98 7.72 5.75 15.52 8.62 23.28 7.29.1 14.57.68 21.87.65 8.42.05 16.82 1.12 25.23.67-5.24-4.76-11.15-8.71-17-12.66-.91 2.5-2.35 5.19-5.17 5.85-3.94 1.98-8.41.5-12.15-1.19-5.49-2.94-10.24-8.36-10.44-14.82-.32-2.88 1.11-5.55 2.76-7.79-2.09-2.55-5.06-4.1-7.65-6.06-4.59-2.97-8.63-6.68-13.24-9.6zM86.19 31.17c2.95-2.36 7.03-2.25 10.34-.76 3.88 4.29 4.01 10.5 2.73 15.85-1.08 4.04-2.31 8.28-5.22 11.42-7.74-.06-15.99-1.51-22.17-6.48-2-1.42-1.99-4.1-2.79-6.2.49-3.36 2.76-5.8 5.27-7.89 3.33-.25 6.75.3 9.26 2.68-.28-3.03-.12-6.66 2.58-8.62zM1.77 187.23c7.22.09 14.46-.21 21.67.34-.14 2.07-.21 4.16-.3 6.24-2.44-.15-4.89-.17-7.33-.35-.74 8.04.01 16.16-.9 24.19-2.16-.15-4.34-.17-6.5-.19-.6-7.99.23-16-.14-23.98-2.32.07-4.65.2-6.95-.12.19-2.04.28-4.09.45-6.13zm34.63.12c2.26.13 4.53.19 6.79.39.04 9.41.24 18.86-.37 28.25-.53 3.21-4.71 1.18-6.9 1.64.41-10.09-.01-20.2.48-30.28zm20.78.39c1.85-.09 3.7-.04 5.56.08 4.76 5.49 8.51 11.78 13.54 17.05.33-5.66.22-11.34.15-17.01 2.34-.07 4.68-.07 7.01-.18.35 9.93-.4 19.9.32 29.81-1.82.21-3.65.32-5.47.41-5-5.61-9.45-11.65-14.04-17.58-.27 5.82-.12 11.65-.43 17.47-2.19-.03-4.38-.05-6.57-.08-.85-9.97.12-19.98-.07-29.97zm50.37 17.68c-3.47-6.07-8.12-11.42-11.29-17.68 2.48.14 5.03-.11 7.47.51 2.81 3.32 4.67 7.31 7.26 10.79 2.97-3.1 4.57-7.13 6.53-10.87 2.66-.13 5.33-.09 7.98.13-3.77 5.61-7.74 11.11-11.34 16.83-.59 4.18-.07 8.44-.22 12.65-2.04.01-4.08.01-6.12.06-.25-4.13.18-8.31-.27-12.42zm30.53-17.2c2.18-.04 4.36-.03 6.54-.05.34 4-.07 8.04.68 12 3.68-.11 7.36-.02 11.05 0 .52-3.83.21-7.69.18-11.54 2.08-.19 4.17-.32 6.25-.04-.32 9.89.59 19.82-.04 29.68-2.2-.15-4.39-.3-6.57-.53.03-3.78-.01-7.56.04-11.33-3.74-.25-7.48-.21-11.22-.29-.08 3.87.59 7.88-.19 11.66-2.01.78-4.38.13-6.52.23-.07-9.93-.64-19.86-.2-29.79zm38.68.52c6.04-.38 12.1-.16 18.15-.06 0 2.04.02 4.08.06 6.12-4-.06-8-.17-12-.05.1 1.81.23 3.63.4 5.44 2.87.01 5.75.06 8.62.14.12 1.86.19 3.71.28 5.57-3 .45-6.04.33-9.06.3.03 1.88.07 3.76.13 5.64 4.13.37 8.27.23 12.41.45-.16 1.89-.33 3.78-.49 5.67-6.14.75-12.35-.08-18.51.24-.31-4.04-.37-8.1.06-12.13.53-5.77-.03-11.55-.05-17.33zm31.81 28.94c.36-9.71-1.06-19.48-.06-29.16 2.07.2 4.15.27 6.24.34-.01 7.8.47 15.59.57 23.38 3.6-.07 7.2-.15 10.79.05.07 1.97.12 3.95.21 5.92-5.91-.27-11.95.89-17.75-.53zm29.86-28.43c2.24-.11 4.48-.15 6.72-.19-.38 7.6-.24 15.2.15 22.8 3.65.95 7.63.18 11.4.61.07 1.96.14 3.91.2 5.87-6.04.29-12.09.08-18.12-.2.8-9.62.01-19.27-.35-28.89zm40.92-.01c3.59-.35 7.52-.43 10.7 1.56 7.11 3.91 10.81 14.17 6.08 21.22-4.06 7.26-14.84 9.04-21.34 4.09-6.5-4.34-9.14-14.13-4.48-20.68 1.98-3.2 5.29-5.59 9.04-6.19m-1.47 7.56c-4.17 3.8-3.53 11.15 1 14.41 3.75 3.31 10.37 1 11.72-3.69 1.95-4.62-.75-9.77-4.68-12.35-2.72.05-5.87-.4-8.04 1.63z" fill="#e24a3a"/></svg>