<svg width="113pt" height="188pt" viewBox="0 0 113 188" xmlns="http://www.w3.org/2000/svg"><g fill="#fdfdfd"><path d="M44.11 1.22c1.29-1.83 2.35.51 3.18 1.29 19.76 25.97 39.62 51.85 59.41 77.8.68 1.04 1.84 2.24 1.18 3.59-2.09.17-3.97-.99-5.92-1.52-28.27-9.22-56.53-18.44-84.81-27.62-1.17-.43-2.25-1.04-3.23-1.83 8.75-8.66 18.32-16.48 27.22-24.98 1.35-8.85 1.62-17.88 2.97-26.73m-.36 27.51c18.53 14.94 36.48 30.62 55.14 45.4C81.45 51.04 63.61 28.25 46.31 5.06c-1.42 7.8-1.82 15.78-2.56 23.67M17.88 52.34c27.92 9.33 55.99 18.22 83.93 27.48-20.08-16.25-39.74-33-59.71-49.38-8.04 7.34-16.16 14.58-24.22 21.9z"/><path d="M37.08 46.07c2.22-1.1 4.42-2.83 7.05-2.51 2.57.64 1.63 4.12-.5 4.71 1.33 1.54.55 4.1-1.62 4.2-2.73-1-3.66-4.08-4.93-6.4zm-6.21 33.18c-.02-2.18-.05-4.5 1.19-6.39 2.53.52.48 3.94.25 5.55l-1.44.84zm26.01-.6c.31.22.94.65 1.25.87.33 4.17 0 8.37.07 12.56-.07 1.28.35 2.97-1.34 3.49-.62-5.6-.45-11.32.02-16.92zm-26.71 2.84c.32.33.96 1 1.28 1.34-.99 4.79-1.58 9.78-3.18 14.37l-1.38.63c.53-5.52 1.84-10.99 3.28-16.34zm55.96 14.64c-.36-1.76-1.49-4.04.36-5.31.54 2.03 1.79 4.07 1.45 6.23-.76.79-1.84.05-1.81-.92zm1.2 5.81c-.26-1.04.16-1.76 1.26-2.17 1.2 5.28 2.54 10.6 3.26 15.94l-1.57.32c-1.07-4.68-2.06-9.38-2.95-14.09zm-30.87 4.11c-.06-1.35-.09-2.92 1.54-3.3.17 2.12.36 4.29.01 6.41-1.98.54-1.46-2.04-1.55-3.11zm-30.99-1.21c2.28 1.59.29 4.5-.05 6.6l-1.59-.36c.3-2.14.92-4.21 1.64-6.24zm31.18 7.76l1.42-.78c.09 5.59.33 11.22-.26 16.79-.36-.3-1.07-.92-1.42-1.23.15-4.93-.1-9.87.26-14.78zm-33.32 1.27c2.24.35 1.2 2.61.97 4.1-.91 3.93-1.48 7.93-2.57 11.82-1.49.46-1.98-.07-1.47-1.59 1.06-4.77 1.97-9.57 3.07-14.33zm68.64 10c.63-.01 1.25 0 1.88.02.21 1.94.72 3.85.74 5.81-2.81.2-1.94-4.03-2.62-5.83zm-76.14 11.07c.77-2.78 5.48-2.8 6.33-.07 1.01 2.16-1.08 3.67-2.35 5.03-.06 1.23-.07 2.47-.04 3.71 4.07.28 8.3 1.35 11.29 4.28 4.44 4.09 5.77 10.29 6.68 16.01-.57.68-1.15 1.36-1.73 2.04.05-6.02-1.59-12.5-5.97-16.85-7.18-6.33-20.7-5.02-25.11 4.03-1.78 3.66-3.19 7.79-2.72 11.91-.52.2-1.57.59-2.09.79.68-6.36 1.94-13.37 6.84-17.94 3-2.96 7.26-3.96 11.33-4.3-.03-.92-.09-2.78-.13-3.71-1.23-1.34-3.29-2.82-2.33-4.93m2.56-.57c-2.3.82-.8 4.36 1.4 3.37 1.98-1.01.67-4.06-1.4-3.37zm35.43.59c.74-2.77 5.45-2.84 6.32-.12.93 1.97-.61 3.74-2.23 4.65-.11 1.31-.21 2.63-.3 3.95 4.06.57 8.38 1.4 11.41 4.42 4.2 3.89 5.81 9.72 6.47 15.24.74-5.92 2.57-12.29 7.49-16.09 2.9-2.37 6.68-3.08 10.31-3.43-.02-.91-.08-2.73-.1-3.64-1.25-1.4-3.38-2.94-2.33-5.11.88-2.69 5.48-2.64 6.3.07.87 1.96-.65 3.69-2.25 4.59-.11 1.31-.21 2.63-.3 3.96 3.62.56 7.46 1.13 10.39 3.54 5.81 4.58 7.44 12.48 7.78 19.48-.51-.44-1.53-1.31-2.04-1.75.53-4.02-.97-8.07-2.69-11.64-5.17-10.57-22.95-10.56-28.11.01-3.47 6.68-3.43 14.48-3.36 21.82.04 4.3 3.1 8.12 7.16 9.37 5.91 1.87 12.35 1.82 18.39.62 4.36-.84 8.95-4.05 8.96-8.93.52.74 1.05 1.48 1.57 2.23-2.13 6.02-8.71 8.79-14.7 8.8-5.35-.06-10.99.61-15.99-1.76-3.1-1.28-5.55-3.94-6.41-7.21-1.8 6.21-8.62 8.92-14.55 8.97-5.69-.04-11.78.66-16.97-2.22-2.93-1.4-4.72-4.26-5.92-7.16 2.46-1.54 2.62 2.2 3.77 3.47 3.77 4.15 9.85 4.53 15.1 4.63 5.26-.1 11.38-.47 15.14-4.66 3.1-3.63 2.29-8.71 2.23-13.09-.29-6.66-1.34-14.02-6.33-18.89-7.02-6.14-20.08-5.11-24.77 3.45-2.22 3.69-2.91 8.02-3.44 12.22-.42-.06-1.25-.19-1.67-.26.96-5.88 2.18-12.33 6.76-16.57 3.01-2.99 7.29-4.01 11.38-4.34l-.12-3.69c-1.23-1.34-3.29-2.81-2.35-4.93m2.53-.53c-2.22.8-.77 4.25 1.38 3.35 2.08-.93.69-4.28-1.38-3.35m37.03-.07c-2.24.81-.82 4.39 1.35 3.35 2.08-.86.71-4.1-1.35-3.35z"/><path d="M10.58 156.33c-1.53-1.29.82-3.93 2.12-2.16 1.22 1.34-.78 3.36-2.12 2.16zm14.72-2.17c1.32-1.76 3.63.9 2.13 2.19-1.34 1.18-3.33-.85-2.13-2.19zm23.25 2.16c-1.48-1.33.87-3.92 2.16-2.13 1.22 1.36-.85 3.35-2.16 2.13zm14.76-2.17c1.33-1.71 3.59.86 2.15 2.18-1.32 1.2-3.43-.84-2.15-2.18zm22.23 2.18c-1.46-1.33.88-3.91 2.18-2.15 1.22 1.36-.87 3.34-2.18 2.15zm14.8-2.21c1.36-1.68 3.57.93 2.09 2.21-1.36 1.21-3.41-.89-2.09-2.21zm-81.36 7.29c-2.16.19-4.47-2.82-2.61-4.52.39.64 1.19 1.91 1.59 2.55 1.88 1.63 2.85-1.43 3.64-2.53 1.94 1.67-.47 4.74-2.62 4.5zm38.07.01c-2.14.27-4.64-2.87-2.64-4.5.38.61 1.13 1.84 1.51 2.46 1.8 1.81 2.89-1.32 3.63-2.44 2.08 1.52-.42 4.69-2.5 4.48zm36.97 0c-2.13.24-4.59-2.86-2.64-4.51.82 1.08 1.79 4.18 3.66 2.54.38-.63 1.16-1.9 1.54-2.53 2 1.6-.45 4.71-2.56 4.5zm-57.93 5.35c.79-.9 2.79-1.89 3.22-.08.58 2.86.06 5.79.47 8.67-.19 2-2.95.95-3.57-.28.45-2.75.32-5.57-.12-8.31zM0 167.01c.41.2 1.24.61 1.65.82-.09 2.5-.11 5.01-.05 7.52l-1.6.6v-8.94zm10.49 3.11c.29-4.61 7.22-4.37 8.51-.44 1.42-4.49 8.84-3.74 8.58 1.23-1.11 4.63-5.02 8.14-8.58 11.08-3.7-3.04-8.54-6.62-8.51-11.87zm38.01-.08c.37-4.49 6.94-4.23 8.47-.57 1.78-4.25 8.95-3.44 8.61 1.57-1.12 4.68-5.23 7.85-8.5 11.11-3.62-3.25-8.72-6.71-8.58-12.11zm38.72-2.83c2.56-1.43 5.39-.03 6.8 2.28 1.68-4.3 8.85-3.45 8.56 1.48-1.17 4.57-5.01 8.12-8.58 11-3.05-2.21-5.87-4.91-7.76-8.19-1.17-2.01-1.26-5.26.98-6.57zm24.11.42c.42-.14 1.25-.4 1.67-.54v8.9c-.4-.17-1.2-.5-1.6-.66.07-2.57.03-5.14-.07-7.7z"/><path d="M.35 178.25c.51-.76 1.03-1.5 1.55-2.25.04 4.48 4.01 7.65 8.03 8.66 5.88 1.45 12.17 1.45 18.06.03 4.05-1 8.08-4.18 8.11-8.7.52.75 1.04 1.51 1.55 2.27-2.18 5.98-8.72 8.74-14.7 8.74-5.68-.03-11.76.65-16.93-2.23-2.71-1.3-4.44-3.88-5.67-6.52z"/></g></svg>