<svg width="238pt" height="352" viewBox="0 0 238 264" xmlns="http://www.w3.org/2000/svg"><path d="M206.43 0h2.82c1.66 1.01 3.37 2.72 2.71 4.86-1.27 4.16-4.5 7.28-7.23 10.51-3.27-2.44-6.92-4.79-8.81-8.55-1.05-2.1-.47-5.44 2.19-5.92 2.19-.9 4.09.64 5.49 2.15.92-1.03 1.85-2.07 2.83-3.05zm-22.47 20.96c.3-2.78 2.92-5.84 5.97-4.77 3.05.58 4.51 3.62 4.35 6.5 3.7-4.37 11.32.78 8.25 5.81-3.7 4.46-10.03 5.31-15.31 6.89-1.76-4.6-3.72-9.4-3.26-14.43zm-64.8 119.18c1.07-1.52 2.99-.36 4.47-.52 1.58-.11 4.02-.9 4.43 1.39-.18 2.79-2.84 4.48-4.48 6.48-2.02-1.95-5.31-4.08-4.42-7.35z" fill="#e74b3b"/><path d="M80.36 13.16c1.27-3.73 6.35-5.33 9.56-3.05 4.2 2.88 7.91 6.41 12.02 9.42 14.47-3.29 29.66-3.32 44.15-.14 4.09-2.96 7.76-6.47 11.93-9.32 3.27-2.27 8.39-.56 9.57 3.26 1.92 5.68 2.88 11.63 4.65 17.34.51 1.96 2.2 3.21 3.55 4.57 6.38 5.82 11.32 13.07 15.17 20.75 8.91 18.29 12.26 38.81 12.99 58.99 1.67 22.23.63 44.53.07 66.78 11.33.02 22.65-.1 33.98.07v1.57l-1.05.9c-78.63-.09-157.26-.08-235.89 0L0 183.5v-1.54c14.86-.47 29.73-.1 44.59-.2-.52-21.61-1.53-43.26-.06-64.87.54-6.65.46-13.35 1.55-19.96 2.78-20.48 8.66-41.58 22.55-57.45 2.35-2.99 6.23-5.01 7.1-8.96 1.64-5.76 2.71-11.69 4.63-17.36m1.94 1.9c-1.71 6.63-3.56 13.23-5.09 19.9-.63 2.28 1.4 4.9 3.79 4.76 1.5 0 4.34-.24 2.86 2.11-3.98 1.78-8.29-1.08-9.4-5.01-5.08 5.17-9.63 10.9-13.04 17.31-8.72 16.12-12.16 34.45-13.89 52.52 28.9 13.92 61.82 17.55 93.53 15.3 20.66-1.66 41.33-6.15 60.03-15.3-2.35-25.28-8.51-52.37-27.62-70.49-.65 2.76-2.46 5.51-5.44 6.02-1.77.31-5.13.41-4.24-2.3 2.83.21 6.78-.27 7.02-3.87-1.35-7.13-3.53-14.1-5.28-21.14-.45-2.71-3.95-4.37-6.22-2.68-5.97 4.34-11.4 9.4-17.42 13.68-2.96-1.71.55-3.25 1.92-4.49a103.2 103.2 0 0 0-39.59.12c1.3 1.1 4.68 2.8 1.81 4.35-6.02-4.2-11.41-9.26-17.34-13.59-2.35-1.85-6-.04-6.39 2.8M47.55 109.4c-2.14 24.07-1.16 48.25-.46 72.36 51.49-.03 102.97 0 154.45-.01.59-24.09 1.82-48.27-.58-72.3-13.56 6.54-28.21 10.57-43.03 12.99-20.07 3.19-40.59 3.46-60.74.94-17.1-2.22-34.06-6.48-49.64-13.98z"/><path d="M86.69 24.41c.7-2.06 3.58-2.88 5.27-1.51 2.76 1.97 5.35 4.18 7.88 6.45-.23.44-.7 1.32-.93 1.76-.68-.35-1.33-.72-1.97-1.12-2.48-1.87-4.83-3.9-7.31-5.77-1.23 2.95-2.03 6.06-2.78 9.17 0 1.58-1.51 1.77-2.74 1.45.64-3.53 1.48-7.02 2.58-10.43zm69.28-1.54c1.93-1.54 5.05-.2 5.45 2.19.74 3.44 2.48 6.85 1.88 10.43-1.24-.27-1.99-.97-2.25-2.08-.78-3.11-1.56-6.23-2.78-9.2-2.49 1.89-4.89 3.9-7.36 5.83-1.13 2.06-4.25-.45-1.88-1.63 2.25-1.91 4.53-3.82 6.94-5.54zm-53.43 47.76c3.28-1.47 7.79 1.92 6.52 5.45-2.09 2.24-2-3.01-4.1-3.21-2.48-.72-3 2.35-4.12 3.8-3.35-.72-.63-5.53 1.7-6.04zm39.85-.06c3.44-1.28 7.2 1.98 6.62 5.56-2.86 1.85-2.31-3.66-5.06-3.45-2.73-.11-2.07 5.11-4.98 3.55-.35-2.4 1.06-4.95 3.42-5.66zM65.6 73.74c2.06-.05 4.08.33 6.08.79 4.2 1.32 9.19 1.07 12.84 3.53l-.35 1.2c-4.45.09-8.71-1.58-13.07-2.29-2.09-.68-5.46-.21-5.5-3.23zm111.67.54c1.99-.51 4.47-1.48 4.71 1.37-.59.12-1.76.38-2.35.51-5.21 1.1-10.33 2.7-15.64 3.27-.29-.37-.89-1.12-1.18-1.5 4.53-2.16 9.66-2.4 14.46-3.65zM70.82 84.46c4.02-.62 7.96-1.65 12.01-2.06 2.23-.78 2.06 2.34.2 2.3-3.88.95-7.85 1.42-11.76 2.23-1.76.18-3.6 1.02-5.34.37-.84-2.88 3.18-2.21 4.89-2.84zm92.73-2c4.94-.05 9.72 1.61 14.59 2.28.96.33 2.89 1 3.86 1.33-.11 2.73-3.12 1.01-4.66 1.05-4.78-1.11-9.82-1.29-14.4-3.11.15-.39.46-1.16.61-1.55zm-81.64 47.59c.3-.4.89-1.21 1.19-1.62 2.53 1.52 4.61 3.65 6.77 5.63 1.7-2.28 4.04-4.41 7.11-4.15 17.67-.06 35.35-.06 53.03 0 3-.25 5.35 1.77 7.05 4 2.2-2.13 4.48-4.19 7.12-5.75.14.49.43 1.47.57 1.96-5.09 5.22-11.67 9.73-14.06 16.96-.87 2.55 1.41 4.65 3.12 6.16 2.6 2.07 6.39 3.9 9.58 2.03 7.3-4.52 13.02-11.06 19.57-16.52l1.08.3.41 1.11c-5.43 5.95-11.57 11.31-18.02 16.15-2.49 2.1-5.78 2.51-8.9 1.93-.07 3.28.67 7.05-1.56 9.81-1.57 2.2-4.42 2.8-6.96 2.71-17.01-.01-34.02-.01-51.02 0-2.54.08-5.38-.52-6.94-2.71-2.25-2.78-1.51-6.56-1.6-9.85-3.09.59-6.4.33-8.9-1.74-6.6-4.88-12.81-10.38-18.38-16.41.43-.32 1.29-.97 1.72-1.29 6.13 5.31 11.71 11.32 18.45 15.9 4.95 3.6 11.73-.79 13.88-5.65.11-3.51-2.29-6.43-4.33-9.07-2.9-3.71-6.75-6.5-9.98-9.89m12.37 2.77c6.48 5.82 13.15 11.43 19.67 17.2 5.11 4.77 14 4.76 19.11.01 6.53-5.76 13.17-11.4 19.68-17.18a21.5 21.5 0 0 0-4.72-.49c-14.67.04-29.34.01-44.02.01-3.24.02-6.52-.21-9.72.45m-2.44 1.99c1.45 4.25 5.76 7.04 6.59 11.66 1.41 4.7-2.99 8.29-6.47 10.56-.04 3.19-.27 6.45.68 9.54 6.38-4.99 12.41-10.41 18.63-15.59-5.2-4.57-10.47-9.05-15.64-13.64-1.13-1.04-2.39-1.9-3.79-2.53m43.9 16.17c6.18 5.2 12.27 10.48 18.5 15.61 1.23-2.99.87-6.25.85-9.39-3.73-2.3-8.43-6.19-6.65-11.15 1-4.54 5.25-7.27 6.7-11.52-6.84 5-12.88 11.03-19.4 16.45m-40.77 17.14c19 .32 38.04.32 57.05-.01-5.94-5.18-12-10.23-18.03-15.32-6.17 4.3-14.79 4.28-20.97 0-6.03 5.09-12.08 10.17-18.05 15.33z"/><g fill="#fff"><path d="M82.3 15.06c.39-2.84 4.04-4.65 6.39-2.8 5.93 4.33 11.32 9.39 17.34 13.59 2.87-1.55-.51-3.25-1.81-4.35a103.2 103.2 0 0 1 39.59-.12c-1.37 1.24-4.88 2.78-1.92 4.49 6.02-4.28 11.45-9.34 17.42-13.68 2.27-1.69 5.77-.03 6.22 2.68 1.75 7.04 3.93 14.01 5.28 21.14-.24 3.6-4.19 4.08-7.02 3.87-.89 2.71 2.47 2.61 4.24 2.3 2.98-.51 4.79-3.26 5.44-6.02 19.11 18.12 25.27 45.21 27.62 70.49-18.7 9.15-39.37 13.64-60.03 15.3-31.71 2.25-64.63-1.38-93.53-15.3 1.73-18.07 5.17-36.4 13.89-52.52 3.41-6.41 7.96-12.14 13.04-17.31 1.11 3.93 5.42 6.79 9.4 5.01 1.48-2.35-1.36-2.11-2.86-2.11-2.39.14-4.42-2.48-3.79-4.76 1.53-6.67 3.38-13.27 5.09-19.9m4.39 9.35c-1.1 3.41-1.94 6.9-2.58 10.43 1.23.32 2.74.13 2.74-1.45 3.4-1.02 6.78-2.14 10.09-3.4.64.4 1.29.77 1.97 1.12.23-.44.7-1.32.93-1.76-2.53-2.27-5.12-4.48-7.88-6.45-1.69-1.37-4.57-.55-5.27 1.51m69.28-1.54c-2.41 1.72-4.69 3.63-6.94 5.54-2.37 1.18.75 3.69 1.88 1.63 3.36 1.18 6.73 2.32 10.14 3.37.26 1.11 1.01 1.81 2.25 2.08.6-3.58-1.14-6.99-1.88-10.43-.4-2.39-3.52-3.73-5.45-2.19M94.39 50.39c-10.2 4.8-19.43 13.04-22.71 24.14-2-.46-4.02-.84-6.08-.79.04 3.02 3.41 2.55 5.5 3.23-.18 2.49-.27 4.99-.28 7.49-1.71.63-5.73-.04-4.89 2.84 1.74.65 3.58-.19 5.34-.37 1.68 7.56 8.08 12.98 15.09 15.55 12.91 4.83 26.95 5.08 40.57 5.09 12.41-.24 25.22-.85 36.82-5.72 6.4-2.64 11.89-7.87 13.59-14.73 1.54-.04 4.55 1.68 4.66-1.05-.97-.33-2.9-1-3.86-1.33-.42-2.87-1.26-6.6 1.49-8.58.59-.13 1.76-.39 2.35-.51-.24-2.85-2.72-1.88-4.71-1.37-1.87-3.32-3.1-7.01-5.5-10.02-6.71-8.97-17.01-14.62-27.63-17.64-16.33-4.48-34.35-3.44-49.75 3.77zm-.11 82.43c3.2-.66 6.48-.43 9.72-.45 14.68 0 29.35.03 44.02-.01a21.5 21.5 0 0 1 4.72.49c-6.51 5.78-13.15 11.42-19.68 17.18-5.11 4.75-14 4.76-19.11-.01-6.52-5.77-13.19-11.38-19.67-17.2m24.88 7.32c-.89 3.27 2.4 5.4 4.42 7.35 1.64-2 4.3-3.69 4.48-6.48-.41-2.29-2.85-1.5-4.43-1.39-1.48.16-3.4-1-4.47.52zm-27.32-5.33c1.4.63 2.66 1.49 3.79 2.53 5.17 4.59 10.44 9.07 15.64 13.64-6.22 5.18-12.25 10.6-18.63 15.59-.95-3.09-.72-6.35-.68-9.54 3.48-2.27 7.88-5.86 6.47-10.56-.83-4.62-5.14-7.41-6.59-11.66zm43.9 16.17c6.52-5.42 12.56-11.45 19.4-16.45-1.45 4.25-5.7 6.98-6.7 11.52-1.78 4.96 2.92 8.85 6.65 11.15.02 3.14.38 6.4-.85 9.39-6.23-5.13-12.32-10.41-18.5-15.61z"/><path d="M94.97 168.12c5.97-5.16 12.02-10.24 18.05-15.33 6.18 4.28 14.8 4.3 20.97 0 6.03 5.09 12.09 10.14 18.03 15.32-19.01.33-38.05.33-57.05.01z"/></g><path d="M86.85 33.39c.75-3.11 1.55-6.22 2.78-9.17 2.48 1.87 4.83 3.9 7.31 5.77-3.31 1.26-6.69 2.38-10.09 3.4zm64.06-3.35c2.47-1.93 4.87-3.94 7.36-5.83 1.22 2.97 2 6.09 2.78 9.2-3.41-1.05-6.78-2.19-10.14-3.37zM94.39 50.39c15.4-7.21 33.42-8.25 49.75-3.77 10.62 3.02 20.92 8.67 27.63 17.64 2.4 3.01 3.63 6.7 5.5 10.02-4.8 1.25-9.93 1.49-14.46 3.65.29.38.89 1.13 1.18 1.5 5.31-.57 10.43-2.17 15.64-3.27-2.75 1.98-1.91 5.71-1.49 8.58-4.87-.67-9.65-2.33-14.59-2.28-.15.39-.46 1.16-.61 1.55 4.58 1.82 9.62 2 14.4 3.11-1.7 6.86-7.19 12.09-13.59 14.73-11.6 4.87-24.41 5.48-36.82 5.72-13.62-.01-27.66-.26-40.57-5.09-7.01-2.57-13.41-7.99-15.09-15.55 3.91-.81 7.88-1.28 11.76-2.23 1.86.04 2.03-3.08-.2-2.3-4.05.41-7.99 1.44-12.01 2.06.01-2.5.1-5 .28-7.49 4.36.71 8.62 2.38 13.07 2.29l.35-1.2c-3.65-2.46-8.64-2.21-12.84-3.53 3.28-11.1 12.51-19.34 22.71-24.14m8.15 20.24c-2.33.51-5.05 5.32-1.7 6.04 1.12-1.45 1.64-4.52 4.12-3.8 2.1.2 2.01 5.45 4.1 3.21 1.27-3.53-3.24-6.92-6.52-5.45m39.85-.06c-2.36.71-3.77 3.26-3.42 5.66 2.91 1.56 2.25-3.66 4.98-3.55 2.75-.21 2.2 5.3 5.06 3.45.58-3.58-3.18-6.84-6.62-5.56M93.3 80.43c-1.93.59-3.57 3.29-1.54 4.77 3.36 2.16 8.08 2.16 11.44 0 2.03-1.41.35-4.22-1.54-4.77-2.68-.85-5.67-.81-8.36 0m21.62-.59c.55 4.26 3.45 8.45 7.98 8.98 5.47 1.05 10.5-3.66 10.7-9.05-6.23-.01-12.46-.11-18.68.07m31.38.55c-2.28.22-3.74 3.53-1.49 4.85 3.39 2 8.08 2.16 11.38-.11 1.89-1.1.58-3.65-.94-4.42-2.79-1.24-6.05-1.08-8.95-.32zM47.55 109.4c15.58 7.5 32.54 11.76 49.64 13.98 20.15 2.52 40.67 2.25 60.74-.94 14.82-2.42 29.47-6.45 43.03-12.99 2.4 24.03 1.17 48.21.58 72.3-51.48.01-102.96-.02-154.45.01-.7-24.11-1.68-48.29.46-72.36m34.36 20.65c3.23 3.39 7.08 6.18 9.98 9.89 2.04 2.64 4.44 5.56 4.33 9.07-2.15 4.86-8.93 9.25-13.88 5.65-6.74-4.58-12.32-10.59-18.45-15.9-.43.32-1.29.97-1.72 1.29 5.57 6.03 11.78 11.53 18.38 16.41 2.5 2.07 5.81 2.33 8.9 1.74.09 3.29-.65 7.07 1.6 9.85 1.56 2.19 4.4 2.79 6.94 2.71 17-.01 34.01-.01 51.02 0 2.54.09 5.39-.51 6.96-2.71 2.23-2.76 1.49-6.53 1.56-9.81 3.12.58 6.41.17 8.9-1.93 6.45-4.84 12.59-10.2 18.02-16.15l-.41-1.11-1.08-.3c-6.55 5.46-12.27 12-19.57 16.52-3.19 1.87-6.98.04-9.58-2.03-1.71-1.51-3.99-3.61-3.12-6.16 2.39-7.23 8.97-11.74 14.06-16.96-.14-.49-.43-1.47-.57-1.96-2.64 1.56-4.92 3.62-7.12 5.75-1.7-2.23-4.05-4.25-7.05-4-17.68-.06-35.36-.06-53.03 0-3.07-.26-5.41 1.87-7.11 4.15-2.16-1.98-4.24-4.11-6.77-5.63-.3.41-.89 1.22-1.19 1.62z" fill="#db8383"/><path d="M93.3 80.43c2.69-.81 5.68-.85 8.36 0 1.89.55 3.57 3.36 1.54 4.77-3.36 2.16-8.08 2.16-11.44 0-2.03-1.48-.39-4.18 1.54-4.77zm53-.04c2.9-.76 6.16-.92 8.95.32 1.52.77 2.83 3.32.94 4.42-3.3 2.27-7.99 2.11-11.38.11-2.25-1.32-.79-4.63 1.49-4.85z" fill="#db6970"/><path fill="#db3327" d="M114.92 79.84c6.22-.18 12.45-.08 18.68-.07-.2 5.39-5.23 10.1-10.7 9.05-4.53-.53-7.43-4.72-7.98-8.98z"/></svg>