<svg width="264" height="154pt" viewBox="0 0 198 154" xmlns="http://www.w3.org/2000/svg"><g fill="#fff"><path d="M162.76 2.95c1.16-2.9 5.05-2.25 6.69-.14 1.34-3.67 7.35-2.93 7.03 1.23-.99 3.64-3.77 6.35-6.11 9.17-3.31-2.54-8.44-5.38-7.61-10.26zm-96.09 8.87c.85-3.47 5.51-5.07 8.32-2.89 3.4 2.42 6.49 5.25 9.83 7.75 11.91-2.79 24.35-2.61 36.32-.3 4.23-1.86 7.1-6.02 11.27-8.09 2.63-1.08 6 .34 6.96 3.04 1.84 5.16 2.42 10.73 4.45 15.82 3.7 3.98 7.81 7.67 10.68 12.36 10.85 16.66 14.31 36.95 15.17 56.48 1.37 18.63.55 37.3.06 55.95 9.39.05 18.78-.11 28.17.08-.06.49-.19 1.48-.25 1.98H.17c0-.51.01-1.53.01-2.03 12.3-.07 24.61-.02 36.92-.03-.77-23.34-1.37-46.77 1.16-70.02 2.26-17.13 6.99-34.78 18.44-48.17 1.82-2.41 4.66-4.06 5.94-6.83 1.56-4.97 2.47-10.13 4.03-15.1m1.78 1.22c-1.45 5.97-3.4 11.85-4.3 17.93.74 2.68 3.67 2.63 5.9 2.79.79 1.99-1.99 1.96-3.14 1.9-2.51-.18-4.01-2.37-5.01-4.43-15.41 15.03-20.37 37.18-22.36 57.85 19.92 9.81 42.41 13.37 64.45 13.31 21.66-.07 43.73-3.66 63.29-13.3-1.91-20.95-7.17-43.24-22.77-58.41-.85 3.72-6.24 7.37-8.92 3.2 2.34-.3 5.7.02 6.47-2.92-.87-6.07-2.85-11.95-4.29-17.91-.29-2.1-2.59-3.65-4.62-2.83-5.6 3.37-9.82 8.94-15.75 11.67-1.07-1.8 1.12-2.64 2.12-3.75a90.028 90.028 0 0 0-32.65.1c1.21 1.06 2.62 2.15 1.96 3.98-5.51-3.31-9.97-8.05-15.23-11.71-2.02-1.39-4.85.23-5.15 2.53M39.17 151.93c42.83.02 85.66 0 128.49.01.53-20.04 1.43-40.14-.41-60.14-21.47 10.24-45.67 13.5-69.27 13.04-19.99-.84-40.25-4.27-58.4-13.04-1.84 20-.95 40.1-.41 60.13zM154.11 15.27c2.58-3.61 8.21-.18 7.56 3.79 1.67-1.06 3.88-1.71 5.58-.33 2.55 1.62 2.22 5.74-.41 7.1-3.39 2.01-7.25 3.4-11.16 3.88-1.58-4.45-4.3-9.95-1.57-14.44z"/><path d="M72.34 20.26c2.58-3.3 5.98.65 8.18 2.34.95.79 3.85 2.75 1.4 3.58-2.7-1.6-4.89-3.93-7.61-5.52-1.08 3.28-1.45 6.82-3.32 9.8-1.81-3.27.54-6.93 1.35-10.2zm50.4 5.01c2.95-2.16 5.43-6.02 9.28-6.3 3.56 1.64 3.02 6.74 4.12 10.01l-1.17 1.03c-1.78-2.81-1.95-6.29-3.06-9.38-2.52 1.52-4.63 3.6-7.04 5.27-.53-.16-1.6-.48-2.13-.63zM80.59 41.49c14.52-6 31.48-5.96 45.97.13 9.2 3.9 17.62 11.01 20.63 20.83-3.9.86-7.82 1.6-11.69 2.6.34.38 1.01 1.13 1.34 1.51 3.64-.58 7.2-1.54 10.82-2.21.18 2.21.27 4.43.25 6.66-4.02-.57-7.96-1.65-12.02-1.93l.16 1.67c3.8.95 7.7 1.44 11.54 2.21-1.5 6.04-6.44 10.5-12.1 12.68-10.61 4.19-22.24 4.4-33.49 4.47-10.8-.23-22.04-.58-32.04-5.11-5.17-2.24-9.37-6.64-10.77-12.17 3.6-.75 7.27-1.18 10.84-2.11l.04-1.66c-3.76.3-7.43 1.23-11.15 1.84-.01-2.13.09-4.27.25-6.4 3.49.62 6.91 1.75 10.45 2.01l.85-1.47c-3.6-.92-7.25-1.62-10.87-2.43 2.99-10.01 11.62-17.22 20.99-21.12m3.06 23.15c.61-1.33 1.38-2.53 2.33-3.61 2.71-.71 2.63 3.14 5 3.42.01-2.1-.71-4.59-3.01-5.17-2.92-1.32-7.08 2.85-4.32 5.36m32.95-.01c.71-1.22 1.46-2.42 2.24-3.61 2.97-1.15 2.49 3.66 5.04 3.03.48-2.8-2.18-5.62-5.02-4.86-2.3.46-4.32 3.55-2.26 5.44m-41.58 5.35c3.02 3.65 9.14 3.52 12.23.04-2.58-4.12-9.67-4.21-12.23-.04m20.68-2.95c.47 4.1 3.93 7.91 8.31 7.41 3.97-.16 6.52-3.75 7.21-7.35-5.17-.16-10.35-.09-15.52-.06m23.32 2.94c2.63 3.22 7.95 3.59 11.14 1.06 1.28-1.07.2-2.72-1.07-3.2-3.3-1.5-8.03-1.28-10.07 2.14zm-50.78 39.02c.19-.4.58-1.21.78-1.62 2.1 1.31 3.88 3.06 5.67 4.75 1.57-1.92 3.63-3.74 6.31-3.42 14.67-.01 29.34-.05 44 .02 2.46-.21 4.23 1.61 5.72 3.29 1.98-1.42 3.63-4.53 6.25-4.17l.1 1.13c-4.44 4.49-10.42 8.5-11.87 15.02.89 4 5.79 7.06 9.77 6.28 6.96-3.43 11.53-10.21 17.92-14.34l.6 1.29c-4.65 5.1-9.88 9.75-15.48 13.8-1.98 1.64-4.56 1.67-6.98 1.36-.08 2.72.6 5.89-1.29 8.17-1.21 1.87-3.61 2.24-5.67 2.21-14.36-.02-28.73 0-43.1-.01-2 .04-4.26-.58-5.36-2.39-1.74-2.32-1.07-5.37-1.12-8.05-2.59.43-5.35.35-7.44-1.43-5.53-4.12-10.85-8.67-15.39-13.87.33-.27.98-.81 1.31-1.08 5.43 4.62 10.21 10.08 16.31 13.85 2.59 1.72 5.64.05 7.86-1.49 1.54-1.27 3.56-3.12 2.75-5.36-2.06-5.9-7.37-9.71-11.65-13.94m11.62 3.06c-.61.64-1.2 1.29-1.79 1.95l-1.12-1.5-.14 1.34c1.97 3.28 5.12 6.18 5.33 10.25-.17 3.36-3.21 5.46-5.63 7.33-.06 2.67-.07 5.35.44 7.98 5.33-4.22 10.4-8.76 15.62-13.12-4.48-3.78-8.73-7.84-13.38-11.42.56-.56 1.12-1.14 1.66-1.71 4.47 4.21 9.2 8.14 13.83 12.16 4.13 4.1 11.62 4.23 15.85.23 5.6-4.8 11.21-9.61 16.68-14.56-16.34-.39-32.72-.35-49.07-.02l1.72 1.09m33.07 14.24c5.27 4.27 10.18 9 15.66 13 .45-2.58.44-5.2.42-7.8-2.6-1.77-5.62-3.97-5.88-7.39.3-4.65 4.18-7.71 6.2-11.6-5.9 4.03-10.88 9.27-16.4 13.79m-34.02 14.37c15.94.05 31.89.03 47.83.01-5.13-4.2-10.14-8.55-15.19-12.84-5.26 3.49-12.31 3.5-17.58.02-5.03 4.26-10.07 8.5-15.06 12.81z"/><path d="M99.18 116.91c1.2-.58 2.34-.47 3.42.33 1.71-1.21 3.07-.96 4.05.74-.43 2.32-2.44 3.79-3.92 5.45-1.67-1.8-4.52-3.66-3.55-6.52z"/></g></svg>