<svg xmlns="http://www.w3.org/2000/svg" viewBox="0 0 151 151" height="151pt" width="151pt"><path d="M64.58 3.76c13.54-1.97 27.63-.04 40.09 5.63 15.13 6.82 27.75 19.05 35.01 33.98 6.93 14.03 8.99 30.38 5.93 45.72-3.12 15.98-11.94 30.74-24.45 41.14-20.73 17.78-51.88 21.83-76.51 10.07-14.83-6.87-27.17-18.96-34.32-33.67C3.54 92.9 1.41 76.96 4.21 61.91c2.66-14.7 10.1-28.47 20.9-38.79C35.82 12.75 49.83 5.86 64.58 3.76M41.2 50.14c-7.77 9.6-11.06 22.87-8 34.91 13.11-3.07 25.92-7.27 38.59-11.84-1.21-2.75-3.46-5.69-2.31-8.85.81-3.32 4.08-5.71 7.49-5.54 4.03-.54 6.97 2.58 10.02 4.64 2.89-1.59 5.8-3.15 8.74-4.64-3.46-7.27-8.17-14.15-10.03-22.05-15.69-5.47-34.28.37-44.5 13.37m52.55-10.83c3 6.07 6.08 12.1 8.97 18.21 3.76-1.6 7.58-3.06 11.46-4.36-5.39-5.42-10.21-11.39-15.55-16.86-1.11-1.28-2.83-2.15-4.49-1.32-2.35.34-1.03 3.06-.39 4.33m14.91 22.24c-11.03 4.64-22.04 9.93-31.28 17.64 3.26.02 6.53-.06 9.73-.74 13.56-2.65 26.84-6.95 39.24-13.06 3.14-1.82 7.22-3.44 8.22-7.32-.5-2.38-3.44-3.22-5.57-2.74-7.04 1.09-13.78 3.51-20.34 6.22m-32.93 4.01c.94 2.03 1.96 4.03 2.96 6.03 1.39-.94 2.77-1.89 4.16-2.83-2.21-1.4-4.38-3.16-7.12-3.2m35.11 12.75c2.28 7.09 3.98 14.37 6.48 21.38 1.14 3.05 5.29.01 5.08-2.38.66-7.81-.46-15.65-.3-23.48-3.73 1.55-7.46 3.12-11.26 4.48M15.56 90.04c.34 4.59 5.7 5.5 9.4 5.56 14-.61 27.32-5.5 40.49-9.87 1.43-.81 4.92-1.11 3.56-3.5-1.34-1.01-2.91.24-4.3.48-11.63 3.96-23.38 8.33-35.69 9.45-3.19-.16-7.98 1.08-9.73-2.45-1.32-3.81 2.8-6.55 2.93-10.24-3.84 1.98-6.55 6.25-6.66 10.57m79.79-5.65c-.79 3.09-1.01 6.49-2.9 9.16-2.51 3.11-7.54 4.48-10.92 1.95-2.58-1.59-3.09-4.78-3.78-7.47-12.03 5.26-24.77 8.67-37.41 12.11 7.86 9.75 19.95 16.47 32.66 16.15 14.62.56 28.32-8.19 36-20.29-1.62-4.6-2.82-9.34-4.18-14.02-3.14.86-6.29 1.7-9.47 2.41m-11.85-.1c.73 2.18 1.51 4.34 2.42 6.45 1.49-2.36 2.25-5.05 3.02-7.71-1.81.45-3.62.87-5.44 1.26z" fill="#81c31b"/><g fill="#fff"><path d="M41.2 50.14c10.22-13 28.81-18.84 44.5-13.37 1.86 7.9 6.57 14.78 10.03 22.05a292.04 292.04 0 0 0-8.74 4.64c-3.05-2.06-5.99-5.18-10.02-4.64-3.41-.17-6.68 2.22-7.49 5.54-1.15 3.16 1.1 6.1 2.31 8.85-12.67 4.57-25.48 8.77-38.59 11.84-3.06-12.04.23-25.31 8-34.91zm52.55-10.83c-.64-1.27-1.96-3.99.39-4.33 1.66-.83 3.38.04 4.49 1.32 5.34 5.47 10.16 11.44 15.55 16.86-3.88 1.3-7.7 2.76-11.46 4.36-2.89-6.11-5.97-12.14-8.97-18.21zm14.91 22.24c6.56-2.71 13.3-5.13 20.34-6.22 2.13-.48 5.07.36 5.57 2.74-1 3.88-5.08 5.5-8.22 7.32-12.4 6.11-25.68 10.41-39.24 13.06-3.2.68-6.47.76-9.73.74 9.24-7.71 20.25-13 31.28-17.64z"/><path d="M75.73 65.56c2.74.04 4.91 1.8 7.12 3.2-1.39.94-2.77 1.89-4.16 2.83-1-2-2.02-4-2.96-6.03zm35.11 12.75c3.8-1.36 7.53-2.93 11.26-4.48-.16 7.83.96 15.67.3 23.48.21 2.39-3.94 5.43-5.08 2.38-2.5-7.01-4.2-14.29-6.48-21.38zM15.56 90.04c.11-4.32 2.82-8.59 6.66-10.57-.13 3.69-4.25 6.43-2.93 10.24 1.75 3.53 6.54 2.29 9.73 2.45 12.31-1.12 24.06-5.49 35.69-9.45 1.39-.24 2.96-1.49 4.3-.48 1.36 2.39-2.13 2.69-3.56 3.5-13.17 4.37-26.49 9.26-40.49 9.87-3.7-.06-9.06-.97-9.4-5.56zm79.79-5.65c3.18-.71 6.33-1.55 9.47-2.41 1.36 4.68 2.56 9.42 4.18 14.02-7.68 12.1-21.38 20.85-36 20.29-12.71.32-24.8-6.4-32.66-16.15 12.64-3.44 25.38-6.85 37.41-12.11.69 2.69 1.2 5.88 3.78 7.47 3.38 2.53 8.41 1.16 10.92-1.95 1.89-2.67 2.11-6.07 2.9-9.16z"/><path d="M83.5 84.29c1.82-.39 3.63-.81 5.44-1.26-.77 2.66-1.53 5.35-3.02 7.71-.91-2.11-1.69-4.27-2.42-6.45z"/></g></svg>