<svg xmlns="http://www.w3.org/2000/svg" width="400" height="400" viewBox="0 0 300 300"><g fill="#fefefe"><path d="M41.3 80.24c3.81-1.01 7.81-.47 11.7-.57 39.01.03 78.03.03 117.04 0 2.47.05 5.26.32 7.05 2.24 2.13 2.08 2.33 5.26 2.37 8.06-.07 23.36-.05 46.71-.01 70.07.12 3.5-1.04 7.66-4.58 9.11-3.56.8-7.25.41-10.87.47-40.01-.05-80.03.03-120.03-.04-4.18.37-7.93-3.39-7.58-7.55-.02-24.68.01-49.37-.01-74.05-.32-3.35 1.74-6.63 4.92-7.74z"/><path d="M184.72 97.92c12.08-.47 24.18.01 36.27-.23 3.04.15 7.06-.71 8.86 2.48 8.06 11.29 15.86 22.76 24.05 33.95 1.22 1.81 2.82 3.62 2.83 5.92.46 12.82-.57 25.7.47 38.49 3.17.71 8.22 1.04 8.17 5.41.03 4.13 1.3 9.82-2.81 12.46-5.33.74-10.75.29-16.12.24-.85-6.41-2.75-12.94-7.43-17.65-7.09-8.16-19.24-10.83-29.29-7.22-6.37 2.33-11.8 7.09-14.83 13.16-1.93 3.62-2.51 7.73-3.19 11.72-22.57.18-45.14.01-67.7.07-6.73-.11-13.47.28-20.19-.21-.41-6.21-2.91-11.91-5.9-17.26 23.03-.13 46.06-.01 69.09-.06 5.83-.06 11.7.36 17.51-.48-.08-22.57-.02-45.14-.05-67.71-.06-4.36-.1-8.73.26-13.08m10.58 12.37c-.06 7.76-.11 15.52.03 23.28 14.87-.02 29.73.03 44.59-.02-4.93-7.82-9.99-15.58-15.27-23.17-9.77-.36-19.57-.18-29.35-.09zM69.56 173.82c7.09-1.37 15.15-1.14 21.03 3.58 8.82 5.98 12.35 18.12 8.56 28.01-3.49 8.8-12.49 15.53-22.13 15.26-5.85.32-11.69-1.78-16.09-5.62-7.41-6.18-10.43-17.15-7.04-26.21 2.47-7.1 8.55-12.75 15.67-15.02m1.99 10.93c-4.39 1.93-7.76 6.38-8.04 11.22-.63 6.92 5.42 13.92 12.48 13.72 7.39.8 14.49-6.25 13.69-13.64-.04-8.65-10.35-14.84-18.13-11.3z"/><path d="M213.4 173.56c5.15-.63 10.69-.84 15.49 1.46 7.52 3.33 13.12 10.74 13.99 18.96 1.43 9.47-3.9 19.15-12.15 23.76-5.11 3.21-11.47 3.4-17.26 2.48-9.45-2.18-17.18-10.52-18.39-20.19-1.87-11.78 6.72-23.97 18.32-26.47m1.07 11.05c-4.08 1.54-7.48 5.18-8.28 9.54-1.56 6.46 2.82 13.6 9.23 15.21 3.96.72 8.53.52 11.67-2.31 4.25-3.29 6.22-9.36 4.25-14.43-2.2-6.69-10.26-10.71-16.87-8.01zm-180.04 1.34c-.15-2.61.67-6.21 3.77-6.56 5.84-.51 11.72-.11 17.57-.17-3.63 5.14-6.14 11.02-6.39 17.38-4.17.03-8.54.79-12.57-.48-3.28-2.27-2.2-6.77-2.38-10.17z"/></g><g fill="#81c31b"><path d="M55.56 34.55c23.55-19.18 53.1-30.88 83.39-33.07 11.46-.14 23.06-.75 34.37 1.48 7.88 1.48 15.72 3.26 23.4 5.58 20.42 6.8 39.38 17.94 55.15 32.59 24.45 22.58 41.22 53.5 46.1 86.47.57 3.15 1.32 6.26 2.03 9.38v27.19c-1.04 4.09-1.97 8.21-2.66 12.37-4.91 28.01-18.21 54.4-37.69 75.1-21.96 23.74-51.85 40.02-83.75 45.41-12.59 1.8-25.4 3.43-38.09 1.69-19.17-1.42-38.05-6.59-55.19-15.31-43.34-21.48-75.5-65.18-80.99-113.48-.6-4.84-1.34-9.67-1.63-14.54v-9.84c.35-5.2 1.1-10.35 1.61-15.54C6.36 92.82 26.36 58 55.56 34.55M41.3 80.24c-3.18 1.11-5.24 4.39-4.92 7.74.02 24.68-.01 49.37.01 74.05-.35 4.16 3.4 7.92 7.58 7.55 40 .07 80.02-.01 120.03.04 3.62-.06 7.31.33 10.87-.47 3.54-1.45 4.7-5.61 4.58-9.11-.04-23.36-.06-46.71.01-70.07-.04-2.8-.24-5.98-2.37-8.06-1.79-1.92-4.58-2.19-7.05-2.24-39.01.03-78.03.03-117.04 0-3.89.1-7.89-.44-11.7.57m143.42 17.68c-.36 4.35-.32 8.72-.26 13.08.03 22.57-.03 45.14.05 67.71-5.81.84-11.68.42-17.51.48-23.03.05-46.06-.07-69.09.06 2.99 5.35 5.49 11.05 5.9 17.26 6.72.49 13.46.1 20.19.21 22.56-.06 45.13.11 67.7-.07.68-3.99 1.26-8.1 3.19-11.72 3.03-6.07 8.46-10.83 14.83-13.16 10.05-3.61 22.2-.94 29.29 7.22 4.68 4.71 6.58 11.24 7.43 17.65 5.37.05 10.79.5 16.12-.24 4.11-2.64 2.84-8.33 2.81-12.46.05-4.37-5-4.7-8.17-5.41-1.04-12.79-.01-25.67-.47-38.49-.01-2.3-1.61-4.11-2.83-5.92-8.19-11.19-15.99-22.66-24.05-33.95-1.8-3.19-5.82-2.33-8.86-2.48-12.09.24-24.19-.24-36.27.23m-115.16 75.9c-7.12 2.27-13.2 7.92-15.67 15.02-3.39 9.06-.37 20.03 7.04 26.21 4.4 3.84 10.24 5.94 16.09 5.62 9.64.27 18.64-6.46 22.13-15.26 3.79-9.89.26-22.03-8.56-28.01-5.88-4.72-13.94-4.95-21.03-3.58m143.84-.26c-11.6 2.5-20.19 14.69-18.32 26.47 1.21 9.67 8.94 18.01 18.39 20.19 5.79.92 12.15.73 17.26-2.48 8.25-4.61 13.58-14.29 12.15-23.76-.87-8.22-6.47-15.63-13.99-18.96-4.8-2.3-10.34-2.09-15.49-1.46M34.43 185.95c.18 3.4-.9 7.9 2.38 10.17 4.03 1.27 8.4.51 12.57.48.25-6.36 2.76-12.24 6.39-17.38-5.85.06-11.73-.34-17.57.17-3.1.35-3.92 3.95-3.77 6.56z"/><path d="M195.3 110.29c9.78-.09 19.58-.27 29.35.09 5.28 7.59 10.34 15.35 15.27 23.17-14.86.05-29.72 0-44.59.02-.14-7.76-.09-15.52-.03-23.28zM71.55 184.75c7.78-3.54 18.09 2.65 18.13 11.3.8 7.39-6.3 14.44-13.69 13.64-7.06.2-13.11-6.8-12.48-13.72.28-4.84 3.65-9.29 8.04-11.22zm142.92-.14c6.61-2.7 14.67 1.32 16.87 8.01 1.97 5.07 0 11.14-4.25 14.43-3.14 2.83-7.71 3.03-11.67 2.31-6.41-1.61-10.79-8.75-9.23-15.21.8-4.36 4.2-8 8.28-9.54z"/></g></svg>