<svg xmlns="http://www.w3.org/2000/svg" viewBox="0 0 110 110" height="110pt" width="110pt"><g fill="#81c31b"><path d="M52.65 0h4.55c13.18.64 26.13 5.95 35.66 15.12C103 24.63 109.12 38.09 110 51.93v5.86c-.79 14.19-7.14 28-17.65 37.59-9.26 8.69-21.62 13.77-34.25 14.62h-5.92c-15.35-.84-30.21-8.29-39.85-20.29C5 80.81.78 69.55 0 58.08v-5.85c.79-13.95 6.92-27.58 17.18-37.11C26.65 5.95 39.54.7 52.65 0m.71 22.54c-9.59 4.29-19.14 8.69-28.72 13.02-.92.64-2.76.94-2.57 2.41-.18 10.34-.03 20.69-.06 31.04.04 1.78-.16 4.21 1.92 4.97 8.47 4.29 17.09 8.29 25.63 12.45 1.89.81 4 2.29 6.07 1.13 9.88-4.35 19.67-8.92 29.48-13.43 1.31-.58 2.93-1.44 2.78-3.13.25-10.02.04-20.04.12-30.05-.16-1.76.43-4.32-1.69-5.12-9.31-4.51-18.78-8.69-28.18-13.02-1.48-.77-3.25-1.18-4.78-.27z"/><path d="M47.57 27.73c2.48-1.19 4.91-2.56 7.55-3.38 1.49.12 2.82.9 4.18 1.46 7.58 3.55 15.28 6.87 22.84 10.47-3.07 1.41-6.41 4.63-9.88 2.53-8.2-3.75-16.67-6.96-24.69-11.08zm-19.85 8.9c3.64-1.75 7.35-3.39 11.13-4.82 8.76 4.3 17.78 8.08 26.39 12.66-3.34 1.51-6.49 3.76-10.13 4.42-9.26-3.75-18.35-7.99-27.39-12.26zm-3.09 1.14c8.76 3.66 17.29 7.81 25.99 11.62 1.58.82 3.97 1.53 3.92 3.73.22 10.93.03 21.87-.05 32.81-8.98-4.15-17.88-8.45-26.82-12.68-1.23-.71-3.16-1.45-2.99-3.2-.05-10.75-.18-21.52-.05-32.28zm52.15 3.97c2.62-1.9 5.76-2.91 8.63-4.34.19 9.86.04 19.73.09 29.59-.06 1.91.16 4.6-2.1 5.33-8.78 4.12-17.38 8.69-26.41 12.24.06-10.82-.38-21.67.22-32.46 2.47-3.16 7.02-4.02 10.47-5.97.14 5.34.03 10.68.08 16.02 2.68-1.47 5.5-2.72 7.98-4.52 1.47-5.15-.49-10.79 1.04-15.89z"/></g><path d="M53.36 22.54c1.53-.91 3.3-.5 4.78.27 9.4 4.33 18.87 8.51 28.18 13.02 2.12.8 1.53 3.36 1.69 5.12-.08 10.01.13 20.03-.12 30.05.15 1.69-1.47 2.55-2.78 3.13-9.81 4.51-19.6 9.08-29.48 13.43-2.07 1.16-4.18-.32-6.07-1.13-8.54-4.16-17.16-8.16-25.63-12.45-2.08-.76-1.88-3.19-1.92-4.97.03-10.35-.12-20.7.06-31.04-.19-1.47 1.65-1.77 2.57-2.41 9.58-4.33 19.13-8.73 28.72-13.02m-5.79 5.19c8.02 4.12 16.49 7.33 24.69 11.08 3.47 2.1 6.81-1.12 9.88-2.53-7.56-3.6-15.26-6.92-22.84-10.47-1.36-.56-2.69-1.34-4.18-1.46-2.64.82-5.07 2.19-7.55 3.38m-19.85 8.9c9.04 4.27 18.13 8.51 27.39 12.26 3.64-.66 6.79-2.91 10.13-4.42-8.61-4.58-17.63-8.36-26.39-12.66-3.78 1.43-7.49 3.07-11.13 4.82m-3.09 1.14c-.13 10.76 0 21.53.05 32.28-.17 1.75 1.76 2.49 2.99 3.2 8.94 4.23 17.84 8.53 26.82 12.68.08-10.94.27-21.88.05-32.81.05-2.2-2.34-2.91-3.92-3.73-8.7-3.81-17.23-7.96-25.99-11.62m52.15 3.97c-1.53 5.1.43 10.74-1.04 15.89-2.48 1.8-5.3 3.05-7.98 4.52-.05-5.34.06-10.68-.08-16.02-3.45 1.95-8 2.81-10.47 5.97-.6 10.79-.16 21.64-.22 32.46 9.03-3.55 17.63-8.12 26.41-12.24 2.26-.73 2.04-3.42 2.1-5.33-.05-9.86.1-19.73-.09-29.59-2.87 1.43-6.01 2.44-8.63 4.34z" fill="#fff"/></svg>